<svg xmlns="http://www.w3.org/2000/svg" xml:space="preserve" id="alert" x="0" y="0" enable-background="new 0 0 66 66" version="1.1" viewBox="0 0 66 66">
  <path fill="#3f7e9f" d="M57.62,53.46v7.11c0,1.02-0.82,1.84-1.84,1.84H10.22c-1.02,0-1.84-0.82-1.84-1.84v-7.11
		c0-1.02,0.82-1.84,1.84-1.84h45.57C56.8,51.62,57.62,52.45,57.62,53.46z"></path>
  <path fill="#226180" d="M54.74,47.54v4.08H11.26v-4.08c0-1.68,1.36-3.05,3.05-3.05h37.4C53.38,44.5,54.74,45.86,54.74,47.54z"></path>
  <path d="M51.74,44.5c0,0.01,0,0.03,0,0.04c0,2.25-1.83,4.08-4.08,4.08h-36.4v3h43.49v-4.08
		C54.74,45.87,53.4,44.52,51.74,44.5z" opacity=".12"></path>
  <path fill="#f56356" d="M14.31,22.28V44.5h37.39V22.28c0-10.32-8.37-18.69-18.69-18.69h0C22.68,3.58,14.31,11.95,14.31,22.28z"></path>
  <path fill="#fff" d="M19.66 23.28c-.55 0-1-.45-1-1 0-4.19 1.83-8.17 5.03-10.9.42-.36 1.05-.31 1.41.11.36.42.31 1.05-.11 1.41-2.75 2.35-4.33 5.77-4.33 9.38C20.66 22.83 20.21 23.28 19.66 23.28zM28.08 10.87c-.4 0-.77-.24-.93-.63-.2-.51.05-1.09.56-1.3 1.69-.67 3.47-1.01 5.29-1.01.55 0 1 .45 1 1 0 .55-.45 1-1 1-1.57 0-3.1.29-4.55.87C28.32 10.85 28.2 10.87 28.08 10.87z" opacity=".35"></path>
  <path fill="#e3504b" d="M38.25,25.86c-0.02,0.63-0.15,1.24-0.37,1.8c-1.37,3.44-2.3,7.03-2.3,10.73v6.11h-5.16v-6.01
		c0-3.61-0.59-7.24-2.16-10.49c-0.33-0.69-0.52-1.47-0.52-2.29c0-2.93,2.41-5.31,5.36-5.25C35.97,20.51,38.33,22.99,38.25,25.86z"></path>
  <path fill="#fe9f8d" d="M55.92 23.01c-.33 0-.65-.16-.84-.45-.3-.46-.17-1.08.29-1.38l5-3.28c.46-.3 1.08-.17 1.38.29.3.46.17 1.08-.29 1.38l-5 3.28C56.3 22.96 56.11 23.01 55.92 23.01zM63 30.04h-7.08c-.55 0-1-.45-1-1s.45-1 1-1H63c.55 0 1 .45 1 1S63.55 30.04 63 30.04zM60.92 40.33c-.19 0-.38-.05-.55-.16l-5-3.28c-.46-.3-.59-.92-.29-1.38.3-.46.92-.59 1.38-.29l5 3.28c.46.3.59.92.29 1.38C61.57 40.17 61.25 40.33 60.92 40.33zM10.08 23.01c-.19 0-.38-.05-.55-.16l-5-3.28c-.46-.3-.59-.92-.29-1.38.3-.46.92-.59 1.38-.29l5 3.28c.46.3.59.92.29 1.38C10.72 22.86 10.4 23.01 10.08 23.01zM10.08 30.04H3c-.55 0-1-.45-1-1s.45-1 1-1h7.08c.55 0 1 .45 1 1S10.63 30.04 10.08 30.04zM5.08 40.33c-.33 0-.65-.16-.84-.45-.3-.46-.17-1.08.29-1.38l5-3.28c.46-.3 1.08-.17 1.38.29.3.46.17 1.08-.29 1.38l-5 3.28C5.45 40.28 5.26 40.33 5.08 40.33z"></path>
  <path d="M43.48 6.8c2.03 2.99 3.21 6.59 3.21 10.48 0 12.27-9.95 22.22-22.22 22.22H14.31v5h37.39V22.28C51.69 15.84 48.43 10.16 43.48 6.8zM55.78 51.62h-1.16v5.95c0 1.02-.82 1.84-1.84 1.84H8.38v1.16c0 1.02.82 1.84 1.84 1.84h45.57c1.02 0 1.84-.82 1.84-1.84v-7.11C57.62 52.45 56.8 51.62 55.78 51.62z" opacity=".12"></path>
</svg>
