<svg xmlns="http://www.w3.org/2000/svg" width="64" height="64" viewBox="0 0 16.933 16.933" id="analytics">
  <path fill="#55a1ff" d="M14.553.529a1.497 1.497 0 0 0-1.497 1.496 1.497 1.497 0 0 0 .128.6 478.55 478.55 0 0 1-3.825 3.159c-.32.237.044.613.245.47 1.23-1 2.696-2.204 3.882-3.18a1.497 1.497 0 0 0 1.067.448 1.497 1.497 0 0 0 1.497-1.497A1.497 1.497 0 0 0 14.553.53z"></path>
  <path fill="#ef6356" d="M3.358 4.554c-.264-.007-.38.404-.13.502 1.296.508 2.579 1.016 3.746 1.477a1.497 1.497 0 0 0-.004.1 1.497 1.497 0 0 0 1.496 1.496 1.497 1.497 0 0 0 1.497-1.497 1.497 1.497 0 0 0-1.497-1.496 1.497 1.497 0 0 0-1.365.885A349.314 349.314 0 0 1 3.48 4.585a.306.306 0 0 0-.121-.03z"></path>
  <path fill="#ffc861" d="M1.322 7.894h2.14c.44 0 .794.354.794.794v6.922c0 .44-.354.794-.794.794h-2.14a.792.792 0 0 1-.793-.794V8.688c0-.44.354-.794.793-.794z"></path>
  <path fill="#ef6356" d="M7.396 10.193h2.14c.44 0 .794.354.794.794v4.623c0 .44-.354.794-.794.794h-2.14a.792.792 0 0 1-.793-.794v-4.623c0-.44.354-.794.793-.794z"></path>
  <path fill="#55a1ff" d="M13.483 4.983h2.14c.44 0 .794.354.794.793v9.834c0 .44-.354.794-.794.794h-2.14a.792.792 0 0 1-.794-.794V5.776c0-.44.355-.793.794-.793z"></path>
  <path fill="#ffc861" d="M3.889 4.413a1.497 1.497 0 0 1-1.497 1.496A1.497 1.497 0 0 1 .896 4.413a1.497 1.497 0 0 1 1.496-1.497A1.497 1.497 0 0 1 3.89 4.413z"></path>
  <path fill="#488bff" d="M47.963 58.748V59c0 1.662 1.338 3 3 3h6.764a2 2 0 0 0-1.604-3.252h-8.16z" color="#000" font-family="sans-serif" font-weight="400" overflow="visible" style="line-height:normal;font-variant-ligatures:normal;font-variant-position:normal;font-variant-caps:normal;font-variant-numeric:normal;font-variant-alternates:normal;font-feature-settings:normal;text-indent:0;text-align:start;text-decoration-line:none;text-decoration-style:solid;text-decoration-color:#000;text-transform:none;text-orientation:mixed;shape-padding:0;isolation:auto;mix-blend-mode:normal" transform="scale(.26458)"></path>
  <path fill="#d85750" d="M24.957 58.748V59a2.99 2.99 0 0 0 3 3h8.086a2.99 2.99 0 0 0 3-3v-.252H24.957z" color="#000" font-family="sans-serif" font-weight="400" overflow="visible" style="line-height:normal;font-variant-ligatures:normal;font-variant-position:normal;font-variant-caps:normal;font-variant-numeric:normal;font-variant-alternates:normal;font-feature-settings:normal;text-indent:0;text-align:start;text-decoration-line:none;text-decoration-style:solid;text-decoration-color:#000;text-transform:none;text-orientation:mixed;shape-padding:0;isolation:auto;mix-blend-mode:normal" transform="scale(.26458)"></path>
  <path fill="#ffab61" d="M8.318 62h4.768a2.99 2.99 0 0 0 3-3v-.252H9.875A2 2 0 0 0 8.318 62z" color="#000" font-family="sans-serif" font-weight="400" overflow="visible" style="line-height:normal;font-variant-ligatures:normal;font-variant-position:normal;font-variant-caps:normal;font-variant-numeric:normal;font-variant-alternates:normal;font-feature-settings:normal;text-indent:0;text-align:start;text-decoration-line:none;text-decoration-style:solid;text-decoration-color:#000;text-transform:none;text-orientation:mixed;shape-padding:0;isolation:auto;mix-blend-mode:normal" transform="scale(.26458)"></path>
</svg>
