<svg xmlns="http://www.w3.org/2000/svg" enable-background="new 0 0 256 256" viewBox="0 0 256 256" id="daily-goal">
  <path fill="#E0EBFC" d="M227.137,207.534H14.197c-5.633,0-10.199-4.566-10.199-10.199V65.426h233.339v131.909
			C237.337,202.968,232.77,207.534,227.137,207.534z"></path>
  <path fill="#4671C6" d="M227.137,25.989H14.197c-5.633,0-10.199,4.566-10.199,10.199v29.238h233.339V36.189
			C237.337,30.556,232.77,25.989,227.137,25.989z"></path>
  <path fill="#3762CC" d="M58.009,118.875H16.232c-1.104,0-2-0.896-2-2v-34.11c0-3.915,3.185-7.1,7.1-7.1h36.677
			c1.104,0,2,0.896,2,2v39.21C60.009,117.979,59.113,118.875,58.009,118.875z M18.232,114.875h37.777v-35.21H21.332
			c-1.709,0-3.1,1.391-3.1,3.1V114.875z"></path>
  <rect width="41.777" height="39.21" x="16.232" y="116.875" fill="#E0EBFC"></rect>
  <path fill="#3762CC" d="M58.009,197.295H21.332c-3.915,0-7.1-3.185-7.1-7.1v-34.11c0-1.104,0.896-2,2-2h41.777
			c1.104,0,2,0.896,2,2v39.21C60.009,196.399,59.113,197.295,58.009,197.295z M18.232,158.085v32.11c0,1.709,1.391,3.1,3.1,3.1
			h34.677v-35.21H18.232z"></path>
  <rect width="41.777" height="39.21" x="58.009" y="77.665" fill="#E0EBFC"></rect>
  <path fill="#3762CC" d="M99.786,158.085H58.009c-1.104,0-2-0.896-2-2v-39.21c0-1.104,0.896-2,2-2h41.777c1.104,0,2,0.896,2,2
			v39.21C101.786,157.189,100.89,158.085,99.786,158.085z M60.009,154.085h37.777v-35.21H60.009V154.085z"></path>
  <rect width="41.777" height="39.21" x="58.009" y="156.085" fill="#E0EBFC"></rect>
  <rect width="41.777" height="39.21" x="99.779" y="77.665" fill="#E0EBFC"></rect>
  <rect width="41.777" height="39.21" x="99.779" y="116.875" fill="#E0EBFC"></rect>
  <path fill="#3762CC" d="M141.556,197.295H99.779c-1.104,0-2-0.896-2-2v-39.21c0-1.104,0.896-2,2-2h41.777c1.104,0,2,0.896,2,2
			v39.21C143.556,196.399,142.66,197.295,141.556,197.295z M101.779,193.295h37.777v-35.21h-37.777V193.295z"></path>
  <rect width="41.777" height="39.21" x="141.556" y="77.665" fill="#E0EBFC"></rect>
  <path fill="#3762CC" d="M183.332,158.085h-41.776c-1.104,0-2-0.896-2-2v-39.21c0-1.104,0.896-2,2-2h41.776c1.104,0,2,0.896,2,2
			v39.21C185.332,157.189,184.437,158.085,183.332,158.085z M143.556,154.085h37.776v-35.21h-37.776V154.085z"></path>
  <path fill="#3762CC" d="M183.332 197.295h-41.776c-1.104 0-2-.896-2-2v-39.21c0-1.104.896-2 2-2h41.776c1.104 0 2 .896 2 2v39.21C185.332 196.399 184.437 197.295 183.332 197.295zM143.556 193.295h37.776v-35.21h-37.776V193.295zM225.108 118.875h-41.776c-1.104 0-2-.896-2-2v-39.21c0-1.104.896-2 2-2h36.677c3.915 0 7.1 3.185 7.1 7.1v34.11C227.108 117.979 226.213 118.875 225.108 118.875zM185.332 114.875h37.776v-32.11c0-1.709-1.391-3.1-3.1-3.1h-34.677V114.875z"></path>
  <path fill="#3762CC" d="M225.108,158.085h-41.776c-1.104,0-2-0.896-2-2v-39.21c0-1.104,0.896-2,2-2h41.776c1.104,0,2,0.896,2,2
			v39.21C227.108,157.189,226.213,158.085,225.108,158.085z M185.332,154.085h37.776v-35.21h-37.776V154.085z"></path>
  <path fill="#3762CC" d="M220.009 197.295h-36.677c-1.104 0-2-.896-2-2v-39.21c0-1.104.896-2 2-2h41.776c1.104 0 2 .896 2 2v34.11C227.108 194.11 223.924 197.295 220.009 197.295zM185.332 193.295h34.677c1.709 0 3.1-1.391 3.1-3.1v-32.11h-37.776V193.295zM87.961 95.968H69.833c-1.104 0-2-.896-2-2s.896-2 2-2h18.128c1.104 0 2 .896 2 2S89.066 95.968 87.961 95.968zM87.961 104.27H69.833c-1.104 0-2-.896-2-2s.896-2 2-2h18.128c1.104 0 2 .896 2 2S89.066 104.27 87.961 104.27zM171.508 95.968H153.38c-1.104 0-2-.896-2-2s.896-2 2-2h18.128c1.104 0 2 .896 2 2S172.612 95.968 171.508 95.968zM171.508 104.27H153.38c-1.104 0-2-.896-2-2s.896-2 2-2h18.128c1.104 0 2 .896 2 2S172.612 104.27 171.508 104.27zM129.731 134.329h-18.128c-1.104 0-2-.896-2-2s.896-2 2-2h18.128c1.104 0 2 .896 2 2S130.836 134.329 129.731 134.329zM129.731 142.631h-18.128c-1.104 0-2-.896-2-2s.896-2 2-2h18.128c1.104 0 2 .896 2 2S130.836 142.631 129.731 142.631zM46.185 134.329H28.056c-1.104 0-2-.896-2-2s.896-2 2-2h18.128c1.104 0 2 .896 2 2S47.289 134.329 46.185 134.329zM46.185 142.631H28.056c-1.104 0-2-.896-2-2s.896-2 2-2h18.128c1.104 0 2 .896 2 2S47.289 142.631 46.185 142.631zM87.961 173.539H69.833c-1.104 0-2-.896-2-2s.896-2 2-2h18.128c1.104 0 2 .896 2 2S89.066 173.539 87.961 173.539zM87.961 181.841H69.833c-1.104 0-2-.896-2-2s.896-2 2-2h18.128c1.104 0 2 .896 2 2S89.066 181.841 87.961 181.841zM237.337 67.426H3.998c-1.104 0-2-.896-2-2V36.188c0-6.727 5.473-12.199 12.199-12.199h212.941c6.727 0 12.199 5.473 12.199 12.199v29.237C239.337 66.53 238.441 67.426 237.337 67.426zM5.998 63.426h229.339V36.188c0-4.521-3.678-8.199-8.199-8.199H14.197c-4.521 0-8.199 3.678-8.199 8.199V63.426z"></path>
  <path fill="#A4C9FF" d="M57.472 47.199c-2.761 0-5-2.238-5-5v-28c0-2.762 2.239-5 5-5s5 2.238 5 5v28C62.472 44.961 60.233 47.199 57.472 47.199zM35.074 47.199c-2.761 0-5-2.238-5-5v-28c0-2.762 2.239-5 5-5s5 2.238 5 5v28C40.074 44.961 37.835 47.199 35.074 47.199zM79.871 47.199c-2.761 0-5-2.238-5-5v-28c0-2.762 2.239-5 5-5s5 2.238 5 5v28C84.871 44.961 82.632 47.199 79.871 47.199zM183.862 47.199c-2.761 0-5-2.238-5-5v-28c0-2.762 2.239-5 5-5s5 2.238 5 5v28C188.862 44.961 186.623 47.199 183.862 47.199zM161.464 47.199c-2.761 0-5-2.238-5-5v-28c0-2.762 2.239-5 5-5s5 2.238 5 5v28C166.464 44.961 164.225 47.199 161.464 47.199zM206.26 47.199c-2.761 0-5-2.238-5-5v-28c0-2.762 2.239-5 5-5s5 2.238 5 5v28C211.26 44.961 209.021 47.199 206.26 47.199z"></path>
  <path fill="#3762CC" d="M57.472 49.199c-3.86 0-7-3.141-7-7v-28c0-3.859 3.14-7 7-7s7 3.141 7 7v28C64.472 46.059 61.332 49.199 57.472 49.199zM57.472 11.199c-1.654 0-3 1.346-3 3v28c0 1.654 1.346 3 3 3s3-1.346 3-3v-28C60.472 12.545 59.126 11.199 57.472 11.199zM35.074 49.199c-3.86 0-7-3.141-7-7v-28c0-3.859 3.14-7 7-7s7 3.141 7 7v28C42.074 46.059 38.934 49.199 35.074 49.199zM35.074 11.199c-1.654 0-3 1.346-3 3v28c0 1.654 1.346 3 3 3s3-1.346 3-3v-28C38.074 12.545 36.729 11.199 35.074 11.199zM79.871 49.199c-3.86 0-7-3.141-7-7v-28c0-3.859 3.14-7 7-7s7 3.141 7 7v28C86.871 46.059 83.73 49.199 79.871 49.199zM79.871 11.199c-1.654 0-3 1.346-3 3v28c0 1.654 1.346 3 3 3s3-1.346 3-3v-28C82.871 12.545 81.525 11.199 79.871 11.199zM183.862 49.199c-3.859 0-7-3.141-7-7v-28c0-3.859 3.141-7 7-7s7 3.141 7 7v28C190.862 46.059 187.722 49.199 183.862 49.199zM183.862 11.199c-1.654 0-3 1.346-3 3v28c0 1.654 1.346 3 3 3s3-1.346 3-3v-28C186.862 12.545 185.517 11.199 183.862 11.199zM161.464 49.199c-3.859 0-7-3.141-7-7v-28c0-3.859 3.141-7 7-7s7 3.141 7 7v28C168.464 46.059 165.323 49.199 161.464 49.199zM161.464 11.199c-1.654 0-3 1.346-3 3v28c0 1.654 1.346 3 3 3s3-1.346 3-3v-28C164.464 12.545 163.118 11.199 161.464 11.199zM206.261 49.199c-3.859 0-7-3.141-7-7v-28c0-3.859 3.141-7 7-7s7 3.141 7 7v28C213.261 46.059 210.12 49.199 206.261 49.199zM206.261 11.199c-1.654 0-3 1.346-3 3v28c0 1.654 1.346 3 3 3s3-1.346 3-3v-28C209.261 12.545 207.915 11.199 206.261 11.199zM227.138 209.534H14.197c-6.727 0-12.199-5.473-12.199-12.199V65.426c0-1.104.896-2 2-2h233.339c1.104 0 2 .896 2 2v131.909C239.337 204.062 233.864 209.534 227.138 209.534zM5.998 67.426v129.909c0 4.521 3.678 8.199 8.199 8.199h212.941c4.521 0 8.199-3.678 8.199-8.199V67.426H5.998z"></path>
  <path fill="#3762CC" d="M99.786,118.875H58.009c-1.104,0-2-0.896-2-2v-39.21c0-1.104,0.896-2,2-2h41.777c1.104,0,2,0.896,2,2
			v39.21C101.786,117.979,100.89,118.875,99.786,118.875z M60.009,114.875h37.777v-35.21H60.009V114.875z"></path>
  <path fill="#3762CC" d="M141.556,118.875H99.779c-1.104,0-2-0.896-2-2v-39.21c0-1.104,0.896-2,2-2h41.777c1.104,0,2,0.896,2,2
			v39.21C143.556,117.979,142.66,118.875,141.556,118.875z M101.779,114.875h37.777v-35.21h-37.777V114.875z"></path>
  <path fill="#3762CC" d="M183.332 118.875h-41.776c-1.104 0-2-.896-2-2v-39.21c0-1.104.896-2 2-2h41.776c1.104 0 2 .896 2 2v39.21C185.332 117.979 184.437 118.875 183.332 118.875zM143.556 114.875h37.776v-35.21h-37.776V114.875zM58.009 158.085H16.232c-1.104 0-2-.896-2-2v-39.21c0-1.104.896-2 2-2h41.777c1.104 0 2 .896 2 2v39.21C60.009 157.189 59.113 158.085 58.009 158.085zM18.232 154.085h37.777v-35.21H18.232V154.085z"></path>
  <path fill="#3762CC" d="M99.786,197.295H58.009c-1.104,0-2-0.896-2-2v-39.21c0-1.104,0.896-2,2-2h41.777c1.104,0,2,0.896,2,2
			v39.21C101.786,196.399,100.89,197.295,99.786,197.295z M60.009,193.295h37.777v-35.21H60.009V193.295z"></path>
  <path fill="#3762CC" d="M141.556,158.085H99.779c-1.104,0-2-0.896-2-2v-39.21c0-1.104,0.896-2,2-2h41.777c1.104,0,2,0.896,2,2
			v39.21C143.556,157.189,142.66,158.085,141.556,158.085z M101.779,154.085h37.777v-35.21h-37.777V154.085z"></path>
  <circle cx="200.233" cy="195.032" r="51.769" fill="#F9A7A7"></circle>
  <path fill="#F9CFCF" d="M200.233,230.801c-19.724,0-35.77-16.046-35.77-35.77c0-19.723,16.046-35.769,35.77-35.769
			s35.77,16.046,35.77,35.769C236.002,214.755,219.957,230.801,200.233,230.801z"></path>
  <path fill="#F9A7A7" d="M200.233,214.801c-10.901,0-19.77-8.868-19.77-19.77c0-10.9,8.868-19.769,19.77-19.769
			s19.77,8.868,19.77,19.769C220.002,205.933,211.134,214.801,200.233,214.801z"></path>
  <path fill="#F9CFCF" d="M200.233,200.801c-3.182,0-5.77-2.588-5.77-5.77c0-3.181,2.588-5.769,5.77-5.769s5.77,2.588,5.77,5.769
			C206.002,198.213,203.415,200.801,200.233,200.801z"></path>
  <path fill="#F9A7A7" d="M116.104 108.166c-.088 0-.176-.004-.265-.012-.885-.078-1.689-.545-2.197-1.272l-6.665-9.563c-.947-1.359-.613-3.229.746-4.177 1.358-.947 3.228-.613 4.177.745l4.616 6.623 13.258-13.258c1.172-1.172 3.07-1.172 4.242 0 1.172 1.171 1.172 3.07 0 4.242l-15.791 15.792C117.66 107.853 116.896 108.166 116.104 108.166zM199.657 108.166c-.088 0-.176-.004-.265-.012-.885-.078-1.688-.545-2.196-1.273l-6.664-9.563c-.947-1.359-.613-3.229.746-4.176 1.36-.947 3.229-.612 4.176.746l4.615 6.622 13.259-13.258c1.172-1.172 3.07-1.172 4.242 0 1.172 1.171 1.172 3.071 0 4.242l-15.792 15.792C201.213 107.853 200.449 108.166 199.657 108.166zM75.307 147.376c-.088 0-.176-.004-.265-.012-.885-.078-1.689-.545-2.197-1.272l-6.664-9.562c-.947-1.359-.613-3.229.746-4.177 1.358-.947 3.228-.613 4.177.745l4.615 6.622 13.258-13.258c1.171-1.172 3.071-1.172 4.242 0 1.172 1.171 1.172 3.071 0 4.242l-15.792 15.792C76.863 147.063 76.099 147.376 75.307 147.376zM116.104 186.587c-.088 0-.176-.004-.265-.012-.885-.078-1.689-.545-2.197-1.272l-6.665-9.563c-.947-1.359-.613-3.229.746-4.177 1.358-.948 3.228-.614 4.177.745l4.616 6.623 13.258-13.258c1.172-1.172 3.07-1.172 4.242 0 1.172 1.171 1.172 3.07 0 4.242l-15.791 15.792C117.66 186.273 116.896 186.587 116.104 186.587z"></path>
  <path fill="#3762CC" d="M200.233,248.801c-29.648,0-53.77-24.121-53.77-53.77s24.121-53.769,53.77-53.769
			s53.769,24.12,53.769,53.769S229.882,248.801,200.233,248.801z M200.233,145.263c-27.443,0-49.77,22.326-49.77,49.769
			c0,27.443,22.326,49.77,49.77,49.77c27.442,0,49.769-22.326,49.769-49.77C250.002,167.589,227.676,145.263,200.233,145.263z"></path>
  <path fill="#3762CC" d="M200.233,232.801c-20.826,0-37.77-16.943-37.77-37.77c0-20.825,16.943-37.769,37.77-37.769
			s37.77,16.943,37.77,37.769C238.003,215.857,221.06,232.801,200.233,232.801z M200.233,161.263
			c-18.62,0-33.77,15.148-33.77,33.769s15.149,33.77,33.77,33.77s33.77-15.149,33.77-33.77S218.854,161.263,200.233,161.263z"></path>
  <path fill="#3762CC" d="M200.233,216.801c-12.004,0-21.77-9.766-21.77-21.77c0-12.003,9.766-21.769,21.77-21.769
			s21.77,9.766,21.77,21.769C222.003,207.035,212.237,216.801,200.233,216.801z M200.233,177.263c-9.798,0-17.77,7.971-17.77,17.769
			s7.972,17.77,17.77,17.77s17.77-7.972,17.77-17.77S210.031,177.263,200.233,177.263z"></path>
  <path fill="#3762CC" d="M200.233,202.801c-4.284,0-7.77-3.485-7.77-7.77c0-4.283,3.485-7.769,7.77-7.769s7.77,3.485,7.77,7.769
			C208.003,199.315,204.518,202.801,200.233,202.801z M200.233,191.263c-2.078,0-3.77,1.69-3.77,3.769s1.691,3.77,3.77,3.77
			s3.77-1.691,3.77-3.77S202.312,191.263,200.233,191.263z"></path>
  <g>
    <path fill="#3762CC" d="M201.089,196.349c-0.512,0-1.023-0.195-1.414-0.586c-0.781-0.781-0.781-2.047,0-2.828l45.134-45.135
			c0.781-0.781,2.047-0.781,2.828,0s0.781,2.047,0,2.828l-45.134,45.135C202.112,196.153,201.601,196.349,201.089,196.349z"></path>
  </g>
  <g>
    <path fill="#6BDDDD" d="M227.09,168.347l-1.441-9.862l14.005-14.005c0.582-0.582,1.578-0.251,1.697,0.562l1.153,7.891
			L227.09,168.347z"></path>
  </g>
  <g>
    <path fill="#6BDDDD" d="M227.09,168.347l9.862,1.441l14.005-14.005c0.582-0.582,0.251-1.578-0.563-1.697l-7.891-1.153
			L227.09,168.347z"></path>
  </g>
  <g>
    <path fill="#3762CC" d="M227.09,170.347c-0.211,0-0.423-0.033-0.63-0.102c-0.718-0.238-1.239-0.86-1.349-1.609l-1.441-9.861
			c-0.092-0.625,0.117-1.257,0.564-1.703l14.005-14.005c0.808-0.808,1.982-1.087,3.065-0.727c1.084,0.359,1.859,1.284,2.024,2.414
			l1.153,7.891c0.092,0.625-0.117,1.257-0.564,1.703l-15.414,15.413C228.123,170.142,227.611,170.347,227.09,170.347z
			 M227.772,159.189l0.72,4.926l11.888-11.886l-0.721-4.927L227.772,159.189z"></path>
  </g>
  <g>
    <path fill="#3762CC" d="M236.952,171.788c-0.096,0-0.192-0.007-0.289-0.021l-9.862-1.441c-0.749-0.109-1.371-0.631-1.609-1.35
			c-0.238-0.718-0.051-1.509,0.484-2.043l15.414-15.413c0.446-0.447,1.076-0.658,1.703-0.564l7.891,1.153
			c1.13,0.165,2.055,0.94,2.414,2.024c0.358,1.083,0.08,2.258-0.727,3.064l-14.005,14.005
			C237.988,171.58,237.479,171.788,236.952,171.788z M231.321,166.944l4.927,0.72l11.886-11.887l-4.926-0.72L231.321,166.944z"></path>
  </g>
</svg>
