<svg xmlns="http://www.w3.org/2000/svg" id="fast-response" viewBox="0 0 512 512">
  <rect width="37.474" height="68.343" x="316.718" y="68.786" style="fill:#faa845"></rect>
  <path d="M440.195 180.499h0c7.285 7.285 19.219 7.285 26.504 0l21.827-21.827c7.285-7.285 7.285-19.219 0-26.476h0c-7.285-7.285-19.191-7.285-26.476 0l-21.855 21.827c-7.257 7.285-7.257 19.191 0 26.476h0ZM230.687 180.499h0c7.285-7.285 7.285-19.19.028-26.476l-21.855-21.827c-7.285-7.285-19.191-7.285-26.476 0h0c-7.285 7.285-7.285 19.19 0 26.476l21.827 21.827c7.285 7.285 19.219 7.285 26.476 0h0Z" style="fill-rule:evenodd;fill:#faa845"></path>
  <path d="M335.455,115.728c93.628,0,169.54,75.912,169.54,169.54s-75.912,169.54-169.54,169.54-169.54-75.912-169.54-169.54S241.827,115.728,335.455,115.728h0Z" style="fill:#11bef7;fill-rule:evenodd"></path>
  <path d="M335.455,151.954c73.616,0,133.285,59.698,133.285,133.313s-59.669,133.285-133.285,133.285-133.285-59.669-133.285-133.285,59.669-133.313,133.285-133.313h0Z" style="fill-rule:evenodd;fill:#cad1d8"></path>
  <path d="M355.553,153.485c64.091,9.666,113.187,64.999,113.187,131.783s-49.096,122.088-113.187,131.783c-64.091-9.694-113.187-64.999-113.187-131.783s49.096-122.116,113.187-131.783h0Z" style="fill-rule:evenodd;fill:#e2e5e7"></path>
  <path d="M442.548,279.258c3.317,0,6.01,2.693,6.01,6.009s-2.693,5.981-6.01,5.981h-.624c-3.317,0-6.009-2.665-6.009-5.981s2.693-6.009,6.009-6.009h.624Zm-165.827-83.764c-1.644-2.863-.652-6.52,2.211-8.164,2.863-1.644,6.52-.652,8.164,2.211l.312,.539c1.644,2.863,.652,6.52-2.211,8.164-2.863,1.644-6.52,.652-8.164-2.211l-.312-.539Zm-37.02,41.386c-2.863-1.644-3.827-5.301-2.183-8.164,1.672-2.863,5.329-3.827,8.192-2.183l.539,.312c2.863,1.672,3.855,5.329,2.183,8.192-1.644,2.863-5.301,3.827-8.164,2.183l-.567-.34Zm185.528-10.347c2.863-1.644,6.52-.652,8.164,2.211,1.644,2.863,.652,6.491-2.211,8.135l-.539,.34c-2.863,1.644-6.52,.652-8.164-2.211-1.644-2.863-.652-6.52,2.211-8.164l.539-.312Zm-41.414-37.021c1.672-2.863,5.329-3.827,8.192-2.183,2.863,1.672,3.827,5.329,2.183,8.192l-.312,.539c-1.672,2.863-5.329,3.827-8.192,2.183-2.863-1.673-3.827-5.329-2.183-8.192l.312-.539Zm-54.368-11.338c0-3.317,2.693-6.01,6.009-6.01s6.009,2.693,6.009,6.01v.624c0,3.316-2.693,6.01-6.009,6.01s-6.009-2.693-6.009-6.01v-.624Zm-101.083,113.074c-3.317,0-6.009-2.665-6.009-5.981s2.693-6.009,6.009-6.009h.624c3.317,0,6.009,2.693,6.009,6.009s-2.693,5.981-6.009,5.981h-.624Zm17.32,52.753c-2.863,1.644-6.52,.652-8.164-2.211-1.644-2.863-.652-6.52,2.211-8.164l.539-.312c2.863-1.644,6.52-.652,8.164,2.211,1.644,2.863,.652,6.491-2.211,8.135l-.539,.34Zm41.414,37.021c-1.672,2.835-5.329,3.827-8.192,2.154-2.863-1.644-3.827-5.301-2.183-8.164l.312-.539c1.672-2.863,5.329-3.855,8.192-2.183,2.863,1.644,3.827,5.301,2.183,8.164l-.312,.567Zm54.369,11.339c0,3.317-2.693,6.01-6.009,6.01s-6.009-2.693-6.009-6.01v-.624c0-3.316,2.693-6.009,6.009-6.009s6.009,2.693,6.009,6.009v.624Zm52.724-17.32c1.644,2.863,.652,6.491-2.211,8.135-2.863,1.644-6.52,.68-8.164-2.183l-.312-.567c-1.644-2.863-.652-6.491,2.211-8.135,2.863-1.644,6.52-.68,8.164,2.183l.312,.567Zm36.992-41.414c2.863,1.644,3.855,5.301,2.211,8.164-1.644,2.863-5.301,3.855-8.164,2.211l-.539-.34c-2.863-1.644-3.855-5.272-2.211-8.135,1.644-2.863,5.301-3.855,8.164-2.211l.539,.312Z" style="fill:#a0a9b0"></path>
  <path d="M307.449,89.961h56.013c3.543,0,6.435-2.919,6.435-6.463v-19.843c0-3.543-2.891-6.463-6.435-6.463h-56.013c-3.543,0-6.435,2.92-6.435,6.463v19.843c0,3.543,2.891,6.463,6.435,6.463h0Z" style="fill:#11bef7;fill-rule:evenodd"></path>
  <path d="M81.556,172.477c-3.317,0-6.009-2.665-6.009-5.981s2.693-6.01,6.009-6.01h67.068c3.317,0,6.009,2.693,6.009,6.01s-2.693,5.981-6.009,5.981H81.556Zm0,237.572c-3.317,0-6.009-2.693-6.009-6.01s2.693-6.01,6.009-6.01h67.068c3.317,0,6.009,2.693,6.009,6.01s-2.693,6.01-6.009,6.01H81.556Zm-31.89-59.414c-3.317,0-5.981-2.665-5.981-5.981s2.665-6.009,5.981-6.009h95.783c3.317,0,6.009,2.693,6.009,6.009s-2.693,5.981-6.009,5.981H49.666Zm-36.68-59.386c-3.317,0-5.981-2.665-5.981-5.981s2.665-6.009,5.981-6.009h126.51c3.317,0,5.981,2.693,5.981,6.009s-2.665,5.981-5.981,5.981H12.986Zm36.68-59.386c-3.317,0-5.981-2.665-5.981-5.981s2.665-6.009,5.981-6.009h95.783c3.317,0,6.009,2.693,6.009,6.009s-2.693,5.981-6.009,5.981H49.666Z" style="fill:#11bef7"></path>
  <path d="M329.446,201.05c0-3.288,2.693-5.981,6.009-5.981s6.009,2.693,6.009,5.981v82.63l35.15,60.888c1.644,2.863,.68,6.52-2.183,8.164-2.863,1.672-6.52,.68-8.192-2.183l-35.745-61.937c-.652-.964-1.049-2.098-1.049-3.345v-84.217Z" style="fill:#a0a9b0"></path>
  <path d="M472.785,179.898l17-16.977c4.665-4.665,7.23-10.888,7.224-17.522-.006-6.62-2.575-12.821-7.224-17.452-4.659-4.658-10.874-7.224-17.501-7.224s-12.843,2.565-17.501,7.224l-16.978,16.978c-23.125-17.401-50.671-29.219-80.622-33.458v-15.497h3.26c6.877,0,12.472-5.595,12.472-12.472v-19.843c0-6.877-5.595-12.472-12.472-12.472h-55.984c-6.877,0-12.472,5.595-12.472,12.472v19.843c0,6.877,5.595,12.472,12.472,12.472h3.26v15.501c-29.948,4.244-57.489,16.064-80.61,33.467l-16.99-16.99c-4.658-4.659-10.874-7.224-17.501-7.224s-12.843,2.565-17.501,7.224c-9.642,9.642-9.642,25.332,.003,34.977l17.013,16.99c-22.1,29.364-35.217,65.854-35.217,105.353,0,96.799,78.751,175.551,175.55,175.551s175.549-78.752,175.549-175.551c0-39.505-13.121-76.002-35.229-105.369Zm-9.504-43.452c2.388-2.389,5.585-3.704,9.002-3.704s6.614,1.315,9.011,3.712c2.38,2.37,3.692,5.551,3.696,8.957,.003,3.42-1.312,6.62-3.701,9.009l-16.095,16.073c-5.555-6.415-11.566-12.424-17.982-17.978l16.07-16.07Zm-159.276-52.949v-19.843c0-.225,.229-.454,.454-.454h55.984c.225,0,.454,.229,.454,.454v19.843c0,.225-.229,.454-.454,.454h-55.984c-.225,0-.454-.229-.454-.454Zm15.732,12.472h25.427v14.211c-4.195-.301-8.428-.463-12.699-.463s-8.523,.162-12.728,.465v-14.213Zm-136.122,58.454c-4.956-4.957-4.956-13.021,0-17.977,2.388-2.389,5.585-3.704,9.002-3.704s6.614,1.315,9.003,3.704l16.082,16.082c-6.415,5.554-12.426,11.564-17.979,17.98l-16.108-16.085Zm148.85,294.375c-90.171,0-163.531-73.359-163.531-163.531S242.293,121.737,332.465,121.737s163.531,73.359,163.531,163.53-73.36,163.531-163.531,163.531Zm0-302.854c-76.823,0-139.323,62.5-139.323,139.322s62.5,139.295,139.323,139.295,139.294-62.487,139.294-139.295-62.487-139.322-139.294-139.322Zm0,266.598c-70.196,0-127.304-57.096-127.304-127.275s57.108-127.304,127.304-127.304,127.275,57.108,127.275,127.304-57.096,127.275-127.275,127.275Zm-100.46-127.275c0,3.319-2.69,6.01-6.009,6.01h-.624c-3.319,0-6.009-2.69-6.009-6.01s2.69-6.01,6.009-6.01h.624c3.319,0,6.009,2.69,6.009,6.01Zm94.451-106.469v-.624c0-3.319,2.69-6.009,6.009-6.009s6.009,2.69,6.009,6.009v.624c0,3.319-2.69,6.009-6.009,6.009s-6.009-2.69-6.009-6.009Zm-52.737,16.732c-1.664-2.872-.685-6.549,2.187-8.212,2.874-1.664,6.549-.684,8.212,2.187l.312,.539c1.664,2.872,.685,6.548-2.188,8.212-.948,.549-1.984,.811-3.006,.811-2.074,0-4.091-1.074-5.206-2.998l-.312-.538Zm171.849,89.736c0,3.319-2.69,6.01-6.009,6.01h-.652c-3.319,0-6.009-2.69-6.009-6.01s2.69-6.01,6.009-6.01h.652c3.319,0,6.009,2.69,6.009,6.01Zm-65.067-95.223l.312-.539c1.664-2.872,5.34-3.852,8.212-2.187,2.872,1.664,3.852,5.34,2.188,8.212l-.312,.538c-1.114,1.924-3.132,2.998-5.206,2.998-1.022,0-2.058-.261-3.007-.811-2.872-1.664-3.851-5.34-2.187-8.212Zm49.981,151.664c-1.094,1.99-3.15,3.116-5.272,3.116-.979,0-1.971-.239-2.889-.744l-.567-.312c-2.909-1.599-3.971-5.252-2.373-8.161,1.598-2.908,5.251-3.972,8.161-2.372l.567,.312c2.909,1.599,3.971,5.252,2.373,8.161Zm-39.204,33.413c1.6,2.908,.538,6.562-2.37,8.161-.918,.505-1.911,.745-2.89,.745-2.121,0-4.177-1.125-5.271-3.115l-.312-.567c-1.6-2.908-.538-6.562,2.37-8.161,2.906-1.6,6.562-.539,8.161,2.37l.312,.567Zm39.204-146.295c1.599,2.909,.536,6.562-2.373,8.161l-.567,.312c-.918,.505-1.91,.744-2.889,.744-2.122,0-4.178-1.126-5.272-3.116-1.599-2.909-.536-6.562,2.373-8.161l.567-.312c2.908-1.6,6.563-.536,8.161,2.372Zm-185.025,106.667c1.662,2.873,.68,6.549-2.193,8.211l-.539,.312c-.947,.548-1.982,.809-3.003,.809-2.075,0-4.094-1.076-5.208-3.002-1.662-2.873-.68-6.549,2.193-8.211l.539-.312c2.873-1.662,6.549-.68,8.211,2.193Zm39.04,44.852l-.312,.567c-1.094,1.99-3.15,3.115-5.271,3.115-.979,0-1.972-.24-2.89-.745-2.908-1.599-3.97-5.253-2.37-8.161l.312-.567c1.599-2.909,5.253-3.968,8.161-2.37,2.908,1.599,3.97,5.253,2.37,8.161Zm-39.04-145.304c-1.114,1.926-3.133,3.002-5.208,3.002-1.021,0-2.056-.261-3.003-.809l-.539-.312c-2.873-1.662-3.855-5.338-2.193-8.211,1.662-2.873,5.338-3.854,8.211-2.193l.539,.312c2.873,1.662,3.855,5.338,2.193,8.211Zm93.019,156.695v.624c0,3.319-2.69,6.01-6.009,6.01s-6.009-2.69-6.009-6.01v-.624c0-3.319,2.69-6.01,6.009-6.01s6.009,2.69,6.009,6.01Zm-196.016-41.074H46.676c-3.319,0-6.009-2.69-6.009-6.01s2.69-6.01,6.009-6.01h95.783c3.319,0,6.009,2.69,6.009,6.01s-2.69,6.01-6.009,6.01Zm-5.981-59.386H9.995c-3.319,0-6.009-2.69-6.009-6.01s2.69-6.01,6.009-6.01h126.482c3.319,0,6.009,2.69,6.009,6.01s-2.69,6.01-6.009,6.01ZM40.667,225.881c0-3.319,2.69-6.01,6.009-6.01h95.783c3.319,0,6.009,2.69,6.009,6.01s-2.69,6.01-6.009,6.01H46.676c-3.319,0-6.009-2.69-6.009-6.01Zm110.976-59.385c0,3.319-2.69,6.009-6.009,6.009H78.565c-3.319,0-6.009-2.69-6.009-6.009s2.69-6.009,6.009-6.009h67.068c3.319,0,6.009,2.69,6.009,6.009Zm0,237.543c0,3.319-2.69,6.01-6.009,6.01H78.565c-3.319,0-6.009-2.69-6.009-6.01s2.69-6.01,6.009-6.01h67.068c3.319,0,6.009,2.69,6.009,6.01Zm221.999-59.472c1.659,2.874,.674,6.55-2.2,8.209-.946,.547-1.98,.807-3,.807-2.077,0-4.097-1.078-5.209-3.006l-35.972-62.306c-.527-.914-.805-1.95-.805-3.005v-84.217c0-3.319,2.69-6.009,6.009-6.009s6.009,2.69,6.009,6.009v82.606l35.167,60.911Z"></path>
</svg>
