<svg xmlns="http://www.w3.org/2000/svg" id="personal-trainer" viewBox="0 0 512 512">
  <rect width="247.141" height="284.967" x="226.997" y="44.934" rx="15.513" ry="15.513" style="stroke-width:0;fill:#9b827a"></rect>
  <rect width="205.835" height="243.662" x="247.65" y="65.587" style="stroke-width:0;fill:#fff"></rect>
  <path d="m295.398,44.934h28.24v-6.438c0-14.812,12.118-26.93,26.929-26.93s26.929,12.118,26.929,26.93v6.438h28.24v38.128h-110.338v-38.128Z" style="stroke-width:0;fill-rule:evenodd;fill:#ffcec0"></path>
  <path d="m500.996,486.84v-37.359c0-12.769-7.665-23.638-19.694-27.922-31.441-11.199-71.039-11.199-102.481,0-12.029,4.285-19.694,15.153-19.694,27.922v37.359c0,7.482,6.103,13.585,13.585,13.585h114.699c7.483,0,13.585-6.103,13.585-13.585Z" style="stroke-width:0;fill-rule:evenodd;fill:#4eb1fc"></path>
  <circle cx="430.062" cy="376.169" r="32.724" style="stroke-width:0;fill:#ffcec0" transform="rotate(-67.5 430.062 376.17)"></circle>
  <path d="m155.889,310.478v-98.513c0-8.792,4.977-16.302,13.073-19.728,12.175-5.153,23.4-11.883,40.305-28.787l39.8-39.8c8.262-8.262,8.262-21.782,0-30.044-8.263-8.263-21.782-8.263-30.044,0l-38.035,38.036c-16.686,16.686-36.996,25.099-60.594,25.099h-63.17c-25.462,0-46.228,20.766-46.228,46.228v100.85c0,10.86,8.885,19.744,19.744,19.744s19.731-8.871,19.745-19.719v6.635h105.405Z" style="stroke-width:0;fill-rule:evenodd;fill:#ff8748"></path>
  <path d="m50.485,474.075c0,14.49,11.858,26.35,26.351,26.35,7.117,0,13.597-2.861,18.351-7.487v-114.232c0-4.418,3.582-8,8-8s8,3.582,8,8v114.232c4.754,4.627,11.234,7.487,18.351,7.487,14.493,0,26.351-11.858,26.351-26.351v-163.596H50.485v163.597Z" style="stroke-width:0;fill-rule:evenodd;fill:#9b827a"></path>
  <circle cx="103.187" cy="95.618" r="37.287" style="stroke-width:0;fill:#ffcec0" transform="rotate(-9.217 103.19 95.623)"></circle>
  <path d="m395.861,486.84v-37.359c0-12.769-7.665-23.638-19.694-27.922-31.441-11.199-71.04-11.199-102.481,0-12.029,4.285-19.694,15.153-19.694,27.922v37.359c0,7.482,6.102,13.585,13.585,13.585h114.699c7.482,0,13.585-6.103,13.585-13.585Z" style="stroke-width:0;fill-rule:evenodd;fill:#43f043"></path>
  <circle cx="324.926" cy="376.169" r="32.724" style="stroke-width:0;fill:#ffcec0"></circle>
  <path d="m281.912,486.84v-37.359c0-12.769-7.665-23.638-19.694-27.922-31.441-11.199-71.04-11.199-102.481,0-12.029,4.285-19.694,15.153-19.694,27.922v37.359c0,7.482,6.103,13.585,13.585,13.585h114.699c7.482,0,13.585-6.103,13.585-13.585Z" style="stroke-width:0;fill-rule:evenodd;fill:#fcdb35"></path>
  <circle cx="210.978" cy="376.169" r="32.724" style="stroke-width:0;fill:#ffcec0" transform="rotate(-67.5 210.977 376.169)"></circle>
  <path d="m282.26,110.339h31.825c1.876,0,3.4,1.523,3.4,3.4v31.824c0,1.876-1.523,3.399-3.399,3.399h-31.825c-1.876,0-3.399-1.523-3.399-3.399v-31.825c0-1.876,1.523-3.399,3.399-3.399Z" style="stroke-width:0;fill:#85caff"></path>
  <path d="m282.26,176.543h31.825c1.876,0,3.4,1.523,3.4,3.4v31.824c0,1.876-1.523,3.4-3.4,3.4h-31.825c-1.876,0-3.399-1.523-3.399-3.399v-31.825c0-1.876,1.523-3.399,3.399-3.399Z" style="stroke-width:0;fill:#43f043"></path>
  <path d="m282.26,242.747h31.825c1.876,0,3.4,1.523,3.4,3.4v31.824c0,1.876-1.523,3.4-3.4,3.4h-31.825c-1.876,0-3.399-1.523-3.399-3.399v-31.825c0-1.876,1.523-3.4,3.4-3.4Z" style="stroke-width:0;fill:#fcdb35"></path>
  <path d="m88.726,214.514h28.503c2.078,0,3.765,1.687,3.765,3.765v41.948c0,2.078-1.687,3.765-3.765,3.765h-28.503c-2.078,0-3.764-1.687-3.764-3.764v-41.949c0-2.077,1.687-3.764,3.764-3.764Z" style="stroke-width:0;fill:#e3f1ff"></path>
  <path d="m341.273,282.112h75.152c4.418,0,8-3.58,8-7.999s-3.582-7.999-8-7.999h-75.152c-4.418,0-8.001,3.58-8.001,7.999s3.582,7.999,8.001,7.999h0Zm0-24.102h37.828c4.417,0,8-3.58,8-7.999s-3.582-8.004-8-8.004h-37.828c-4.418,0-8.001,3.585-8.001,8.004s3.582,7.999,8.001,7.999h0Zm0-42.101h75.152c4.418,0,8-3.58,8-7.999s-3.582-7.999-8-7.999h-75.152c-4.418,0-8.001,3.581-8.001,7.999s3.582,7.999,8.001,7.999h0Zm0-24.102h37.828c4.417,0,8-3.585,8-7.999s-3.582-8.004-8-8.004h-37.828c-4.418,0-8.001,3.585-8.001,8.004s3.582,7.999,8.001,7.999h0Zm-31.783,58.942h-22.625v22.624h22.625v-22.624h0Zm15.999-4.597v31.822c0,6.287-5.113,11.401-11.399,11.401h-31.824c-6.287,0-11.4-5.114-11.4-11.401v-31.822c0-6.287,5.113-11.401,11.4-11.401h31.824c6.285,0,11.399,5.114,11.399,11.401h0Zm-15.999-61.607h-22.625v22.623h22.625v-22.623h0Zm15.999-4.597v31.822c0,6.287-5.113,11.396-11.399,11.396h-31.824c-6.287,0-11.4-5.11-11.4-11.396v-31.822c0-6.286,5.113-11.401,11.4-11.401h31.824c6.285,0,11.399,5.115,11.399,11.401h0Zm-38.624-38.983h22.625v-22.624h-22.625v22.624h0Zm-4.598-38.622h31.824c6.285,0,11.399,5.114,11.399,11.401v31.822c0,6.287-5.113,11.401-11.399,11.401h-31.824c-6.287,0-11.4-5.114-11.4-11.401v-31.822c0-6.287,5.113-11.401,11.4-11.401h0Zm59.007,47.362h75.152c4.418,0,8-3.58,8-7.999s-3.582-7.999-8-7.999h-75.152c-4.418,0-8.001,3.581-8.001,7.999s3.582,7.999,8.001,7.999h0Zm0-24.102h37.828c4.417,0,8-3.585,8-7.999s-3.582-8.004-8-8.004h-37.828c-4.418,0-8.001,3.585-8.001,8.004s3.582,7.999,8.001,7.999h0Zm-267.368-29.981c0,16.149,13.139,29.29,29.288,29.29s29.288-13.141,29.288-29.29-13.139-29.285-29.288-29.285-29.288,13.137-29.288,29.285h0Zm-16.001,0c0-24.972,20.317-45.288,45.288-45.288s45.286,20.316,45.286,45.288-20.314,45.288-45.286,45.288-45.288-20.316-45.288-45.288h0Zm435.097,353.863c0-9.414-5.508-17.225-14.377-20.385-25.155-8.961-56.576-10.27-83.577-3.952,5.598,6.602,8.818,15.105,8.818,24.336v37.358c0,1.937-.279,3.805-.758,5.591h84.309c3.082,0,5.586-2.509,5.586-5.591v-37.358h0Zm-110.72,42.949c3.08,0,5.584-2.509,5.584-5.591v-37.358c0-9.414-5.509-17.225-14.378-20.385-27.453-9.78-62.375-10.453-90.864-2.024,4.654,6.291,7.295,14.052,7.295,22.408v37.358c0,1.937-.281,3.805-.76,5.591h93.124Zm-113.948,0c3.08,0,5.584-2.509,5.584-5.591v-37.358c0-9.414-5.511-17.225-14.378-20.385-14.747-5.252-31.654-7.88-48.554-7.88s-33.808,2.628-48.558,7.88c-8.869,3.159-14.378,10.971-14.378,20.385v37.358c0,3.082,2.504,5.591,5.586,5.591h114.699Zm-138.789,0c1.075,0,2.14-.11,3.187-.298-.429-1.694-.683-3.462-.683-5.293v-37.358c0-12.596,5.988-23.842,15.847-30.742v-100.26H58.489v155.594c0,10.119,8.233,18.356,18.352,18.356s18.351-8.237,18.351-18.356v-95.366c0-4.419,3.581-7.999,8.001-7.999s7.999,3.58,7.999,7.999v95.366c0,10.119,8.233,18.356,18.353,18.356h0Zm-87.055-188.598c-.007,6.47-5.276,11.731-11.744,11.731s-11.744-5.27-11.744-11.744v-100.847c0-21.08,17.149-38.232,38.229-38.232h7.987l24.117,41.776h-.604c-6.485,0-11.764,5.279-11.764,11.763v41.95c0,6.483,5.278,11.763,11.764,11.763h28.504c6.487,0,11.763-5.279,11.763-11.763v-41.95c0-6.483-5.276-11.763-11.763-11.763h-.186l25.561-44.276c16.537-3.86,31.292-12.193,44.041-24.94l38.034-38.036c2.486-2.486,5.811-3.851,9.365-3.851s6.88,1.365,9.367,3.851c2.484,2.486,3.853,5.81,3.853,9.363s-1.368,6.882-3.853,9.368l-39.801,39.798c-16.015,16.017-26.324,22.234-37.765,27.079-11.075,4.684-17.956,15.068-17.956,27.092v90.513H58.489v-89.134c0-4.418-3.58-7.999-8.001-7.999s-8,3.58-8,7.999v90.49h0Zm50.479-47.839h20.032v-33.48h-20.032v33.48h0Zm27.431-91.254h-36.707l19.501,33.777,19.527-33.828c-.772.018-1.54.05-2.321.05h0Zm114.603-104.29v18.983c1.577.051,3.134.22,4.654.508v-14.354c0-4.418,3.583-7.999,8.001-7.999h39.749v-4.652h-44.89c-4.142,0-7.513,3.37-7.513,7.514h0Zm60.404,30.613h110.336c4.42,0,8.001-3.581,8.001-7.999v-9.473h31.749v227.659h-189.835v-172.916c4.918-5.385,7.614-12.326,7.614-19.707s-2.695-14.318-7.614-19.702v-15.334h31.749v9.473c0,4.419,3.581,7.999,8.001,7.999h0Zm8-16.003h94.338v-22.124h-20.241c-4.42,0-8.001-3.581-8.001-7.999v-6.442c0-10.435-8.492-18.929-18.93-18.929s-18.929,8.494-18.929,18.929v6.442c0,4.418-3.581,7.999-8,7.999h-20.238v22.124h0Zm155.224-22.124c4.143,0,7.513,3.37,7.513,7.514v253.941c0,4.144-3.37,7.514-7.513,7.514h-216.114c-4.142,0-7.513-3.37-7.513-7.514v-165.356l4.654-4.652v164.866c0,4.418,3.583,7.999,8.001,7.999h205.835c4.418,0,8-3.581,8-7.999V65.589c0-4.418-3.582-7.999-8-7.999h-39.749v-4.652h44.887Zm-108.974,323.235c0-13.635-11.091-24.725-24.725-24.725s-24.721,11.09-24.721,24.725,11.091,24.725,24.721,24.725,24.725-11.094,24.725-24.725h0Zm-113.949,0c0-13.635-11.091-24.725-24.724-24.725s-24.723,11.09-24.723,24.725,11.091,24.725,24.723,24.725,24.724-11.094,24.724-24.725h0Zm62.845,30.984c-9.542,1.479-18.821,3.764-27.542,6.868-1.035.371-2.048.792-3.042,1.241-.994-.449-2.012-.87-3.058-1.241-8.723-3.105-18.002-5.389-27.542-6.868,8.765-7.477,14.34-18.59,14.34-30.984,0-22.454-18.268-40.728-40.724-40.728s-40.724,18.274-40.724,40.728c0,12.395,5.575,23.512,14.343,30.984-7.088,1.099-14.03,2.642-20.707,4.638v-199.83c0-5.568,3.062-10.187,8.192-12.358,12.847-5.439,25.049-12.706,42.843-30.499l4.072-4.075v149.358c0,12.963,10.547,23.512,23.512,23.512h68.486c-15.614,5.7-26.792,20.705-26.792,38.269,0,12.395,5.575,23.507,14.342,30.984h0Zm117.586-69.253c-15.614,5.7-26.793,20.705-26.793,38.269,0,12.395,5.575,23.507,14.341,30.984-9.048,1.401-17.857,3.535-26.184,6.406-8.328-2.871-17.137-5.005-26.187-6.406,8.766-7.477,14.341-18.59,14.341-30.984,0-17.564-11.179-32.568-26.793-38.269h77.275Zm13.931,13.544c-13.634,0-24.725,11.09-24.725,24.725s11.091,24.725,24.725,24.725,24.723-11.094,24.723-24.725-11.091-24.725-24.723-24.725h0Zm78.932,98.035v37.358c0,11.905-9.684,21.589-21.584,21.589H153.634c-3.849,0-7.458-1.026-10.592-2.798-4.248,1.827-8.825,2.798-13.498,2.798-10.574,0-20.047-4.803-26.351-12.34-6.307,7.537-15.779,12.34-26.351,12.34-18.942,0-34.353-15.412-34.353-34.354v-145.123c-3.568,1.676-7.548,2.614-11.744,2.614-15.297,0-27.744-12.449-27.744-27.747v-100.847c0-29.904,24.326-54.231,54.229-54.231h63.169c21.356,0,39.839-7.655,54.938-22.756l38.036-38.036c1.712-1.712,3.602-3.182,5.63-4.4v-23.1c0-12.967,10.547-23.516,23.512-23.516h73.163c.819-18.535,16.158-33.365,34.893-33.365s34.078,14.83,34.895,33.365h73.163c12.967,0,23.516,10.55,23.516,23.516v253.941c0,12.963-10.549,23.512-23.516,23.512h-14.632c15.616,5.7,26.793,20.705,26.793,38.269,0,12.395-5.572,23.507-14.341,30.984,9.543,1.479,18.819,3.764,27.542,6.868,15.192,5.412,25.009,19.331,25.009,35.458h0ZM359.965,38.497c0,5.174-4.219,9.391-9.394,9.391s-9.39-4.217-9.39-9.391,4.219-9.391,9.39-9.391,9.394,4.222,9.394,9.391Z" style="stroke-width:0;fill-rule:evenodd"></path>
</svg>
