<svg xmlns="http://www.w3.org/2000/svg" xml:space="preserve" id="privacy" x="0" y="0" style="enable-background:new 0 0 66 66" version="1.1" viewBox="0 0 66 66">
  <g>
    <g>
      <g>
        <path d="M32.41,56.63c2.42-0.19,4.81-1.04,7.05-2.19c1.99-1.02,3.84-2.33,5.52-3.82c3.18-2.82,5.78-6.28,7.93-9.96
				c1.63-2.8,3.03-5.75,4.17-8.79c0.13-0.36,0.26-0.71,0.39-1.07c0.14-0.39,0.56-1.1,0.41-1.52c-0.13-0.35-0.62-0.52-0.92-0.68
				c-0.38-0.2-0.75-0.4-1.11-0.62c-0.72-0.43-1.41-0.9-2.07-1.41c-2.63-2-4.88-4.49-6.84-7.17c-0.95-1.3-1.83-2.64-2.66-4.02
				c-0.77-1.3-1.38-2.69-2.55-3.67c-0.17-0.14-0.34-0.27-0.54-0.36c-0.2-0.08-0.42-0.11-0.64-0.13c-1.5-0.15-3.02-0.09-4.5,0.17
				c-0.08,0.02-0.17,0.03-0.24,0.09c-0.08,0.07-0.1,0.19-0.11,0.3c-0.1,1.02,0.39,2.08,0.06,3.04c-0.35,1.03-1.56,1.38-2.44,1.79
				c-1.13,0.53-2.29,1-3.47,1.42c-1.59,0.56-3.22,1.01-4.88,1.29c-0.84,0.14-1.68,0.24-2.53,0.28c-0.42,0.02-0.85,0.03-1.27,0.03
				c-0.36,0-0.82-0.14-1.1,0.18c-0.48,0.54-0.42,1.73-0.49,2.41c-0.06,0.55-0.12,1.1-0.16,1.65c-0.29,3.42-0.31,6.88,0.02,10.31
				c0.4,4.23,1.34,8.46,3.1,12.32c0.62,1.35,1.34,2.65,2.16,3.87c0.67,0.99,1.61,1.86,1.74,3.1c0.06,0.58,0.04,1.17-0.06,1.74
				c-0.01,0.08-0.03,0.17,0.01,0.23c0.03,0.05,0.08,0.07,0.13,0.09C28.45,56.49,30.44,56.78,32.41,56.63z" style="fill:#dceaea"></path>
      </g>
      <g>
        <path d="M31.45,57.13c-1.82,0-3.54-0.39-5.14-1.17c-0.07-0.03-0.21-0.1-0.31-0.26c-0.14-0.22-0.1-0.46-0.08-0.57
				c0.1-0.53,0.12-1.07,0.06-1.6c-0.09-0.81-0.59-1.46-1.11-2.14c-0.19-0.25-0.38-0.5-0.55-0.75c-0.82-1.22-1.56-2.54-2.2-3.94
				c-1.64-3.58-2.69-7.78-3.14-12.47c-0.32-3.34-0.32-6.83-0.02-10.39c0.04-0.51,0.1-1.01,0.15-1.52l0.01-0.15
				c0.01-0.14,0.02-0.3,0.03-0.47c0.04-0.73,0.09-1.65,0.57-2.19c0.37-0.42,0.89-0.38,1.24-0.35c0.14,0.01,0.28,0.01,0.41,0.01
				c0.35,0,0.7-0.01,1.05-0.03c0.8-0.04,1.64-0.14,2.48-0.28c1.54-0.26,3.15-0.69,4.8-1.27c1.13-0.4,2.28-0.87,3.43-1.4
				c0.14-0.07,0.29-0.13,0.45-0.2c0.75-0.32,1.52-0.65,1.75-1.33c0.16-0.46,0.08-0.98,0-1.54c-0.06-0.45-0.13-0.92-0.08-1.4
				c0.01-0.11,0.04-0.39,0.26-0.59c0.16-0.15,0.36-0.19,0.46-0.2c1.53-0.27,3.09-0.33,4.63-0.18c0.25,0.02,0.51,0.06,0.76,0.16
				c0.27,0.11,0.49,0.28,0.67,0.43c0.98,0.83,1.59,1.92,2.18,2.97c0.15,0.28,0.31,0.55,0.47,0.82c0.81,1.37,1.7,2.71,2.63,3.99
				c2.17,2.96,4.37,5.27,6.75,7.07c0.67,0.51,1.35,0.97,2.03,1.38c0.36,0.22,0.73,0.42,1.09,0.61l0.16,0.08
				c0.34,0.16,0.81,0.39,0.98,0.85c0.18,0.49-0.08,1.07-0.28,1.54c-0.05,0.11-0.09,0.21-0.12,0.29c-0.13,0.36-0.26,0.72-0.4,1.08
				c-1.16,3.1-2.58,6.08-4.2,8.86c-2.38,4.07-5.07,7.46-8.02,10.07c-1.78,1.58-3.67,2.89-5.61,3.89c-2.56,1.32-4.99,2.07-7.23,2.24
				l0,0C32.11,57.12,31.78,57.13,31.45,57.13z M26.84,55.19c1.72,0.8,3.57,1.13,5.53,0.98l0,0c2.11-0.16,4.42-0.88,6.88-2.15
				c1.88-0.96,3.7-2.23,5.42-3.76c2.87-2.55,5.51-5.86,7.84-9.85c1.6-2.74,2.99-5.67,4.14-8.72c0.13-0.36,0.26-0.71,0.39-1.07
				c0.04-0.1,0.09-0.22,0.15-0.35c0.09-0.21,0.31-0.71,0.26-0.85c-0.04-0.11-0.35-0.26-0.51-0.33c-0.07-0.03-0.13-0.06-0.18-0.09
				c-0.38-0.2-0.76-0.41-1.14-0.64c-0.71-0.42-1.42-0.91-2.12-1.44c-2.44-1.85-4.71-4.23-6.93-7.26c-0.95-1.3-1.85-2.66-2.68-4.06
				c-0.16-0.28-0.32-0.56-0.48-0.84c-0.57-1.02-1.11-1.99-1.97-2.71c-0.12-0.1-0.27-0.22-0.42-0.28c-0.14-0.06-0.32-0.08-0.51-0.1
				c-1.45-0.15-2.91-0.09-4.35,0.16c-0.03,0.37,0.02,0.75,0.08,1.16c0.09,0.64,0.18,1.3-0.04,1.96c-0.36,1.06-1.41,1.51-2.26,1.88
				c-0.15,0.06-0.29,0.12-0.42,0.19c-1.17,0.54-2.35,1.03-3.51,1.44c-1.7,0.6-3.37,1.04-4.96,1.31c-0.88,0.15-1.75,0.25-2.58,0.29
				c-0.44,0.02-0.88,0.03-1.3,0.03c-0.09,0-0.19-0.01-0.29-0.02c-0.24-0.02-0.41-0.03-0.47,0.04c-0.27,0.3-0.31,1.07-0.34,1.63
				c-0.01,0.19-0.02,0.37-0.04,0.52l-0.02,0.15c-0.05,0.5-0.11,1-0.15,1.5c-0.3,3.5-0.29,6.94,0.02,10.22
				c0.44,4.59,1.47,8.69,3.06,12.17c0.62,1.35,1.33,2.64,2.13,3.81c0.16,0.24,0.34,0.47,0.52,0.71c0.58,0.76,1.18,1.54,1.3,2.6
				C26.96,54.02,26.94,54.61,26.84,55.19z M36.07,11.86L36.07,11.86L36.07,11.86z M36.17,11.76L36.17,11.76L36.17,11.76z"></path>
      </g>
    </g>
    <g>
      <path d="M27.06,55.81c1.29,0.05,2.56-0.35,3.88-0.8c1.09-0.37,2.15-0.82,3.17-1.34c1.99-1.02,3.84-2.33,5.52-3.82
			c3.18-2.82,5.78-6.28,7.93-9.96c1.63-2.8,3.03-5.75,4.17-8.79c0.13-0.36,0.26-0.71,0.39-1.07c0.14-0.39,0.56-1.1,0.41-1.52
			c-0.13-0.35-0.62-0.52-0.92-0.68c-0.38-0.2-0.75-0.4-1.11-0.62c-0.72-0.43-1.41-0.9-2.07-1.41c-2.63-2-4.88-4.49-6.84-7.17
			c-1.47-2-2.79-4.13-3.95-6.34c-0.48-0.91-1.63-1.2-2.46-0.62c-0.84,0.59-1.7,1.15-2.58,1.68c-2.57,1.56-5.27,2.91-8.09,3.9
			c-1.59,0.56-3.22,1.01-4.88,1.29c-0.84,0.14-1.68,0.24-2.53,0.28c-0.42,0.02-0.85,0.03-1.27,0.03c-0.36,0-0.82-0.14-1.1,0.18
			c-0.48,0.54-0.42,1.73-0.49,2.41c-0.06,0.55-0.12,1.1-0.16,1.65c-0.29,3.42-0.31,6.88,0.02,10.31c0.4,4.23,1.34,8.46,3.1,12.32
			c0.9,1.97,2.02,3.83,3.37,5.51c1.22,1.51,2.58,3.13,4.35,4.01C25.64,55.62,26.35,55.78,27.06,55.81z" style="fill:#fff"></path>
      <path d="M27.27,56.27c-0.07,0-0.15,0-0.22,0c-0.83-0.03-1.6-0.23-2.35-0.6c-1.82-0.91-3.22-2.54-4.5-4.13
			c-1.33-1.65-2.48-3.54-3.43-5.61c-1.64-3.58-2.7-7.78-3.14-12.47c-0.32-3.34-0.32-6.83-0.02-10.39c0.04-0.51,0.1-1.01,0.15-1.52
			l0.01-0.14c0.01-0.14,0.02-0.3,0.03-0.47c0.04-0.73,0.09-1.65,0.57-2.19c0.37-0.42,0.89-0.38,1.24-0.35
			c0.14,0.01,0.27,0.01,0.4,0.01c0.35,0,0.71-0.01,1.06-0.03c0.8-0.04,1.64-0.14,2.48-0.28c1.54-0.26,3.16-0.69,4.81-1.27
			c2.61-0.92,5.31-2.22,8.01-3.86c0.88-0.54,1.74-1.1,2.55-1.66c0.5-0.35,1.13-0.47,1.73-0.32c0.6,0.15,1.11,0.55,1.4,1.1
			c1.16,2.2,2.47,4.31,3.91,6.28c2.17,2.96,4.38,5.27,6.75,7.07c0.67,0.51,1.35,0.97,2.03,1.38c0.36,0.21,0.72,0.42,1.09,0.61
			l0.16,0.08c0.34,0.16,0.81,0.38,0.98,0.85c0.18,0.49-0.08,1.07-0.28,1.54c-0.05,0.11-0.09,0.21-0.12,0.29
			c-0.13,0.36-0.26,0.72-0.4,1.08c-1.16,3.1-2.58,6.08-4.2,8.86c-2.38,4.07-5.07,7.46-8.02,10.07c-1.78,1.58-3.67,2.89-5.61,3.89
			c-1.05,0.54-2.14,1-3.24,1.37C29.74,55.9,28.52,56.27,27.27,56.27z M15.28,19.3c-0.1,0-0.18,0.01-0.21,0.05
			c-0.27,0.3-0.31,1.07-0.34,1.63c-0.01,0.19-0.02,0.37-0.04,0.52l-0.01,0.14c-0.05,0.5-0.11,1-0.15,1.5
			c-0.3,3.5-0.29,6.94,0.02,10.22c0.44,4.59,1.47,8.68,3.06,12.17c0.91,2,2.03,3.82,3.31,5.41c1.27,1.58,2.54,3.06,4.2,3.89
			c0.63,0.32,1.28,0.48,1.97,0.51c0,0,0,0,0,0c1.17,0.05,2.33-0.31,3.72-0.78c1.05-0.35,2.1-0.8,3.11-1.32
			c1.88-0.96,3.7-2.23,5.42-3.76c2.87-2.55,5.51-5.86,7.84-9.85c1.6-2.74,2.99-5.67,4.14-8.72c0.13-0.35,0.26-0.71,0.39-1.07
			c0.04-0.1,0.09-0.22,0.15-0.35c0.09-0.21,0.31-0.71,0.26-0.85c-0.04-0.11-0.35-0.26-0.51-0.33c-0.07-0.03-0.13-0.06-0.18-0.09
			c-0.39-0.2-0.77-0.41-1.14-0.64c-0.71-0.42-1.42-0.91-2.12-1.44c-2.44-1.85-4.71-4.23-6.93-7.26c-1.47-2-2.81-4.15-3.98-6.39
			c-0.17-0.32-0.46-0.55-0.81-0.64c-0.34-0.08-0.69-0.02-0.98,0.19c-0.83,0.58-1.7,1.15-2.6,1.69c-2.75,1.68-5.51,3-8.18,3.95
			c-1.7,0.6-3.37,1.04-4.96,1.31c-0.87,0.15-1.74,0.25-2.58,0.29c-0.43,0.02-0.87,0.03-1.3,0.03c-0.09,0-0.19-0.01-0.29-0.02
			C15.44,19.3,15.35,19.3,15.28,19.3z"></path>
    </g>
    <g>
      <ellipse cx="31.13" cy="32.97" rx="12.67" ry="12.96" style="fill:#fff"></ellipse>
      <path d="M31.15,46.39c-0.97,0-1.94-0.11-2.91-0.33c-7.06-1.63-11.51-8.82-9.92-16.04l0,0c0.78-3.55,2.88-6.56,5.9-8.47
			c2.94-1.86,6.42-2.45,9.79-1.68c7.06,1.63,11.51,8.82,9.92,16.04c-0.78,3.55-2.88,6.56-5.9,8.47
			C35.94,45.71,33.57,46.39,31.15,46.39z M19.22,30.22c-1.48,6.73,2.66,13.43,9.23,14.95c3.13,0.72,6.36,0.17,9.09-1.56
			c2.82-1.78,4.77-4.58,5.5-7.89c1.48-6.73-2.66-13.43-9.23-14.95c-3.13-0.72-6.36-0.17-9.09,1.56
			C21.9,24.11,19.95,26.91,19.22,30.22L19.22,30.22z"></path>
    </g>
    <g>
      <g>
        <path d="M21.56,37.23c0.11,1,1.18,1.55,1.96,1.96c1.19,0.61,2.43,1.1,3.7,1.48c0.45,0.13,0.89,0.24,1.34,0.36
				c0.12,0.03,0.24,0.05,0.36,0.08l1.56,0.4c0.53,0.13,1.07,0.26,1.6,0.36c0.93,0.17,1.86,0.24,2.79,0.3
				c0.79,0.04,1.63,0.19,2.36-0.18c0.41-0.2,0.62-0.54,0.73-0.94c0.18-0.7,0.04-1.57-0.05-2.22c-0.15-1.12-0.53-2.2-1.08-3.16
				c-1.14-1.96-3-3.41-5.16-3.99l-0.07-0.01c-1.83-0.49-3.78-0.34-5.5,0.42c-0.32,0.13-0.62,0.29-0.91,0.46
				c-0.96,0.57-1.79,1.32-2.47,2.2C22.19,35.44,21.45,36.3,21.56,37.23z" style="fill:#dc5ae0"></path>
      </g>
      <g>
        <path d="M29.43,25.29c-0.53,2.02,0.66,4.11,2.65,4.65c1.41,0.37,2.84-0.12,3.74-1.16c0.38-0.43,0.66-0.96,0.82-1.55
				c0.52-2.04-0.66-4.11-2.66-4.65c-0.6-0.17-1.22-0.17-1.79-0.03C30.89,22.86,29.79,23.87,29.43,25.29z" style="fill:#dc5ae0"></path>
      </g>
    </g>
    <g>
      <g>
        <path d="M24.32,35.56c0.1,0.92,1.08,1.43,1.81,1.8c1.08,0.57,2.22,1.02,3.39,1.37c0.41,0.12,0.82,0.22,1.24,0.32
				l0.33,0.09c0.48,0.12,0.96,0.25,1.44,0.36c0.49,0.13,0.98,0.25,1.47,0.34c0.85,0.16,1.72,0.23,2.57,0.26
				c0.35,0.02,0.71,0.06,1.07,0.07c0.17-0.64,0.04-1.45-0.05-2.04c-0.14-1.03-0.48-2.02-1-2.91c-1.05-1.81-2.77-3.14-4.75-3.68
				l-0.07-0.01c-1.68-0.45-3.48-0.31-5.07,0.39c-0.5,0.39-0.94,0.85-1.33,1.36C24.9,33.91,24.22,34.71,24.32,35.56z" style="fill:#f26bf2"></path>
      </g>
      <g>
        <path d="M31.57,24.56c-0.48,1.88,0.61,3.8,2.44,4.29c0.55,0.15,1.13,0.15,1.65,0.02c0.35-0.39,0.61-0.88,0.75-1.43
				c0.48-1.88-0.61-3.79-2.45-4.28C33.42,23,32.85,23,32.33,23.13C31.98,23.52,31.72,24.01,31.57,24.56z" style="fill:#f26bf2"></path>
      </g>
    </g>
    <g>
      <g>
        <path d="M36.03,42.63c-0.26,0-0.52-0.02-0.76-0.04c-0.14-0.01-0.28-0.02-0.42-0.03c-0.9-0.05-1.87-0.12-2.85-0.3
				c-0.43-0.08-0.87-0.18-1.3-0.28l-1.89-0.48c-0.06-0.01-0.11-0.03-0.16-0.04c-0.07-0.01-0.13-0.03-0.2-0.04
				c-0.46-0.12-0.9-0.23-1.35-0.36c-1.29-0.38-2.56-0.88-3.78-1.51c-0.84-0.44-2.06-1.09-2.2-2.32c-0.12-1.04,0.56-1.93,1.1-2.64
				l0.13-0.18c0.72-0.95,1.6-1.73,2.6-2.32c0.36-0.21,0.66-0.36,0.97-0.49c1.8-0.8,3.85-0.96,5.76-0.45l0.04,0
				c0.02,0,0.05,0.01,0.07,0.01c2.26,0.61,4.24,2.14,5.44,4.21c0.6,1.05,0.99,2.17,1.14,3.33l0.02,0.12
				c0.1,0.68,0.22,1.53,0.02,2.27c-0.16,0.59-0.49,1-0.98,1.23C36.98,42.57,36.5,42.63,36.03,42.63z M29.45,31.78
				c-1.08,0-2.16,0.22-3.17,0.67c-0.28,0.11-0.55,0.25-0.86,0.43c-0.9,0.53-1.69,1.24-2.33,2.09l-0.14,0.18
				c-0.47,0.61-1,1.31-0.92,1.98c0,0,0,0,0,0c0.09,0.75,0.98,1.22,1.69,1.6c1.19,0.61,2.41,1.09,3.63,1.45
				c0.44,0.12,0.87,0.24,1.32,0.35c0.06,0.02,0.11,0.03,0.17,0.04c0.07,0.01,0.13,0.03,0.2,0.05l1.88,0.48
				c0.43,0.1,0.83,0.2,1.24,0.27c0.93,0.17,1.87,0.24,2.74,0.29c0.14,0.01,0.29,0.02,0.43,0.03c0.62,0.04,1.21,0.09,1.7-0.16
				c0.25-0.12,0.41-0.33,0.49-0.65c0.15-0.56,0.04-1.31-0.05-1.9l-0.02-0.13c-0.14-1.04-0.49-2.07-1.03-3
				c-1.07-1.85-2.84-3.22-4.84-3.77l-0.04,0c-0.02,0-0.05-0.01-0.07-0.01C30.82,31.87,30.13,31.78,29.45,31.78z"></path>
      </g>
      <g>
        <path d="M33.05,30.47c-0.36,0-0.72-0.05-1.08-0.14c-2.24-0.6-3.57-2.94-2.97-5.21c0.39-1.53,1.57-2.71,3.09-3.08
				c0.65-0.16,1.35-0.15,2.02,0.03c2.22,0.6,3.56,2.94,2.98,5.21c-0.17,0.66-0.49,1.26-0.92,1.74
				C35.37,29.96,34.24,30.47,33.05,30.47z M33.04,22.85c-0.25,0-0.49,0.03-0.73,0.09c-1.19,0.29-2.12,1.21-2.42,2.41c0,0,0,0,0,0
				c-0.47,1.78,0.57,3.62,2.32,4.09c1.2,0.32,2.46-0.07,3.27-1.02c0.34-0.38,0.58-0.85,0.72-1.37c0.46-1.78-0.59-3.62-2.33-4.09
				C33.6,22.89,33.32,22.85,33.04,22.85z M29.45,25.24L29.45,25.24L29.45,25.24z"></path>
      </g>
    </g>
    <g>
      <path d="M29.61,32.85c0.31,0.02,0.68,0.13,0.78,0.43c0.08,0.26-0.11,0.55-0.34,0.68c-0.24,0.13-0.52,0.14-0.79,0.17
			c-0.67,0.06-1.33,0.21-1.96,0.45c-0.29,0.11-1.29,0.85-1.53,0.38c-0.03-0.06-0.03-0.14-0.02-0.21c0.06-0.46,0.45-0.79,0.83-1.04
			C27.45,33.14,28.57,32.78,29.61,32.85z" style="fill:#fff"></path>
    </g>
    <g>
      <ellipse cx="31.13" cy="32.97" rx="12.67" ry="12.96" style="fill:#fff"></ellipse>
      <path d="M31.15,46.39c-0.97,0-1.94-0.11-2.91-0.33c-7.06-1.63-11.51-8.82-9.92-16.04l0,0c0.78-3.55,2.88-6.56,5.9-8.47
			c2.94-1.86,6.42-2.45,9.79-1.68c7.06,1.63,11.51,8.82,9.92,16.04c-0.78,3.55-2.88,6.56-5.9,8.47
			C35.94,45.71,33.57,46.39,31.15,46.39z M19.22,30.22c-1.48,6.73,2.66,13.43,9.23,14.95c3.13,0.72,6.36,0.17,9.09-1.56
			c2.82-1.78,4.77-4.58,5.5-7.89c1.48-6.73-2.66-13.43-9.23-14.95c-3.13-0.72-6.36-0.17-9.09,1.56
			C21.9,24.11,19.95,26.91,19.22,30.22L19.22,30.22z"></path>
    </g>
    <g>
      <g>
        <path d="M21.56,37.23c0.11,1,1.18,1.55,1.96,1.96c1.19,0.61,2.43,1.1,3.7,1.48c0.45,0.13,0.89,0.24,1.34,0.36
				c0.12,0.03,0.24,0.05,0.36,0.08l1.56,0.4c0.53,0.13,1.07,0.26,1.6,0.36c0.93,0.17,1.86,0.24,2.79,0.3
				c0.79,0.04,1.63,0.19,2.36-0.18c0.41-0.2,0.62-0.54,0.73-0.94c0.18-0.7,0.04-1.57-0.05-2.22c-0.15-1.12-0.53-2.2-1.08-3.16
				c-1.14-1.96-3-3.41-5.16-3.99l-0.07-0.01c-1.83-0.49-3.78-0.34-5.5,0.42c-0.32,0.13-0.62,0.29-0.91,0.46
				c-0.96,0.57-1.79,1.32-2.47,2.2C22.19,35.44,21.45,36.3,21.56,37.23z" style="fill:#dc5ae0"></path>
      </g>
      <g>
        <path d="M29.43,25.29c-0.53,2.02,0.66,4.11,2.65,4.65c1.41,0.37,2.84-0.12,3.74-1.16c0.38-0.43,0.66-0.96,0.82-1.55
				c0.52-2.04-0.66-4.11-2.66-4.65c-0.6-0.17-1.22-0.17-1.79-0.03C30.89,22.86,29.79,23.87,29.43,25.29z" style="fill:#dc5ae0"></path>
      </g>
    </g>
    <g>
      <g>
        <path d="M24.32,35.56c0.1,0.92,1.08,1.43,1.81,1.8c1.08,0.57,2.22,1.02,3.39,1.37c0.41,0.12,0.82,0.22,1.24,0.32
				l0.33,0.09c0.48,0.12,0.96,0.25,1.44,0.36c0.49,0.13,0.98,0.25,1.47,0.34c0.85,0.16,1.72,0.23,2.57,0.26
				c0.35,0.02,0.71,0.06,1.07,0.07c0.17-0.64,0.04-1.45-0.05-2.04c-0.14-1.03-0.48-2.02-1-2.91c-1.05-1.81-2.77-3.14-4.75-3.68
				l-0.07-0.01c-1.68-0.45-3.48-0.31-5.07,0.39c-0.5,0.39-0.94,0.85-1.33,1.36C24.9,33.91,24.22,34.71,24.32,35.56z" style="fill:#f26bf2"></path>
      </g>
      <g>
        <path d="M31.57,24.56c-0.48,1.88,0.61,3.8,2.44,4.29c0.55,0.15,1.13,0.15,1.65,0.02c0.35-0.39,0.61-0.88,0.75-1.43
				c0.48-1.88-0.61-3.79-2.45-4.28C33.42,23,32.85,23,32.33,23.13C31.98,23.52,31.72,24.01,31.57,24.56z" style="fill:#f26bf2"></path>
      </g>
    </g>
    <g>
      <g>
        <path d="M36.03,42.63c-0.26,0-0.52-0.02-0.76-0.04c-0.14-0.01-0.28-0.02-0.42-0.03c-0.9-0.05-1.87-0.12-2.85-0.3
				c-0.43-0.08-0.87-0.18-1.3-0.28l-1.89-0.48c-0.06-0.01-0.11-0.03-0.16-0.04c-0.07-0.01-0.13-0.03-0.2-0.04
				c-0.46-0.12-0.9-0.23-1.35-0.36c-1.29-0.38-2.56-0.88-3.78-1.51c-0.84-0.44-2.06-1.09-2.2-2.32c-0.12-1.04,0.56-1.93,1.1-2.64
				l0.13-0.18c0.72-0.95,1.6-1.73,2.6-2.32c0.36-0.21,0.66-0.36,0.97-0.49c1.8-0.8,3.85-0.96,5.76-0.45l0.04,0
				c0.02,0,0.05,0.01,0.07,0.01c2.26,0.61,4.24,2.14,5.44,4.21c0.6,1.05,0.99,2.17,1.14,3.33l0.02,0.12
				c0.1,0.68,0.22,1.53,0.02,2.27c-0.16,0.59-0.49,1-0.98,1.23C36.98,42.57,36.5,42.63,36.03,42.63z M29.45,31.78
				c-1.08,0-2.16,0.22-3.17,0.67c-0.28,0.11-0.55,0.25-0.86,0.43c-0.9,0.53-1.69,1.24-2.33,2.09l-0.14,0.18
				c-0.47,0.61-1,1.31-0.92,1.98c0,0,0,0,0,0c0.09,0.75,0.98,1.22,1.69,1.6c1.19,0.61,2.41,1.09,3.63,1.45
				c0.44,0.12,0.87,0.24,1.32,0.35c0.06,0.02,0.11,0.03,0.17,0.04c0.07,0.01,0.13,0.03,0.2,0.05l1.88,0.48
				c0.43,0.1,0.83,0.2,1.24,0.27c0.93,0.17,1.87,0.24,2.74,0.29c0.14,0.01,0.29,0.02,0.43,0.03c0.62,0.04,1.21,0.09,1.7-0.16
				c0.25-0.12,0.41-0.33,0.49-0.65c0.15-0.56,0.04-1.31-0.05-1.9l-0.02-0.13c-0.14-1.04-0.49-2.07-1.03-3
				c-1.07-1.85-2.84-3.22-4.84-3.77l-0.04,0c-0.02,0-0.05-0.01-0.07-0.01C30.82,31.87,30.13,31.78,29.45,31.78z"></path>
      </g>
      <g>
        <path d="M33.05,30.47c-0.36,0-0.72-0.05-1.08-0.14c-2.24-0.6-3.57-2.94-2.97-5.21c0.39-1.53,1.57-2.71,3.09-3.08
				c0.65-0.16,1.35-0.15,2.02,0.03c2.22,0.6,3.56,2.94,2.98,5.21c-0.17,0.66-0.49,1.26-0.92,1.74
				C35.37,29.96,34.24,30.47,33.05,30.47z M33.04,22.85c-0.25,0-0.49,0.03-0.73,0.09c-1.19,0.29-2.12,1.21-2.42,2.41c0,0,0,0,0,0
				c-0.47,1.78,0.57,3.62,2.32,4.09c1.2,0.32,2.46-0.07,3.27-1.02c0.34-0.38,0.58-0.85,0.72-1.37c0.46-1.78-0.59-3.62-2.33-4.09
				C33.6,22.89,33.32,22.85,33.04,22.85z M29.45,25.24L29.45,25.24L29.45,25.24z"></path>
      </g>
    </g>
    <g>
      <path d="M29.61,32.85c0.31,0.02,0.68,0.13,0.78,0.43c0.08,0.26-0.11,0.55-0.34,0.68c-0.24,0.13-0.52,0.14-0.79,0.17
			c-0.67,0.06-1.33,0.21-1.96,0.45c-0.29,0.11-1.29,0.85-1.53,0.38c-0.03-0.06-0.03-0.14-0.02-0.21c0.06-0.46,0.45-0.79,0.83-1.04
			C27.45,33.14,28.57,32.78,29.61,32.85z" style="fill:#fff"></path>
    </g>
    <g>
      <ellipse cx="31.13" cy="32.97" rx="12.67" ry="12.96" style="fill:#fff"></ellipse>
      <path d="M31.15,46.39c-0.97,0-1.94-0.11-2.91-0.33c-7.06-1.63-11.51-8.82-9.92-16.04l0,0c0.78-3.55,2.88-6.56,5.9-8.47
			c2.94-1.86,6.42-2.45,9.79-1.68c7.06,1.63,11.51,8.82,9.92,16.04c-0.78,3.55-2.88,6.56-5.9,8.47
			C35.94,45.71,33.57,46.39,31.15,46.39z M19.22,30.22c-1.48,6.73,2.66,13.43,9.23,14.95c3.13,0.72,6.36,0.17,9.09-1.56
			c2.82-1.78,4.77-4.58,5.5-7.89c1.48-6.73-2.66-13.43-9.23-14.95c-3.13-0.72-6.36-0.17-9.09,1.56
			C21.9,24.11,19.95,26.91,19.22,30.22L19.22,30.22z"></path>
    </g>
    <g>
      <g>
        <path d="M36.62,39.61c-0.09,0.33-0.27,0.62-0.61,0.78c-0.52,0.26-1.1,0.21-1.67,0.17c-0.1-0.01-0.2-0.01-0.31-0.02
				c-0.78-0.05-1.55-0.1-2.33-0.25c-0.45-0.08-0.89-0.19-1.34-0.3l-1.3-0.33c-0.1-0.03-0.2-0.04-0.3-0.07
				c-0.37-0.1-0.74-0.19-1.12-0.3c-1.06-0.31-2.1-0.73-3.09-1.24c-0.65-0.34-1.54-0.8-1.63-1.64c-0.09-0.78,0.52-1.5,0.95-2.08
				c0.56-0.74,1.27-1.37,2.07-1.84c0.25-0.14,0.49-0.27,0.76-0.38c1.35-0.59,2.87-0.74,4.31-0.42c0.1,0.02,0.19,0.04,0.29,0.07
				l0.06,0.01c1.8,0.48,3.36,1.7,4.31,3.34c0.47,0.81,0.78,1.71,0.9,2.64C36.65,38.3,36.77,39.03,36.62,39.61z" style="fill:#dc5ae0"></path>
      </g>
      <g>
        <path d="M35.51,28.07c-0.13,0.5-0.36,0.94-0.68,1.29c-0.42,0.49-0.98,0.84-1.6,0.98c-0.48,0.12-1,0.13-1.52-0.01
				c-1.66-0.45-2.66-2.19-2.21-3.89c0.3-1.18,1.21-2.03,2.3-2.29c0.47-0.12,0.99-0.11,1.49,0.03c0.14,0.04,0.28,0.09,0.41,0.14
				C35.11,24.93,35.91,26.51,35.51,28.07z" style="fill:#dc5ae0"></path>
      </g>
    </g>
    <g>
      <g>
        <path d="M36.62,39.61c-0.09,0.33-0.27,0.62-0.61,0.78c-0.52,0.26-1.1,0.21-1.67,0.17c-0.23-0.03-0.47-0.07-0.7-0.11
				c-0.45-0.08-0.89-0.19-1.34-0.3L31,39.83c-0.1-0.03-0.19-0.04-0.3-0.07c-0.38-0.1-0.75-0.19-1.12-0.3
				c-1.06-0.31-2.09-0.72-3.09-1.23c-0.66-0.35-1.54-0.81-1.64-1.64c-0.09-0.78,0.52-1.51,0.96-2.08c0.56-0.74,1.26-1.37,2.06-1.84
				c0.25-0.14,0.5-0.28,0.76-0.38c0.75-0.33,1.55-0.53,2.37-0.57c0.1,0.02,0.19,0.04,0.29,0.07l0.06,0.01
				c1.8,0.48,3.36,1.7,4.31,3.34c0.47,0.81,0.78,1.71,0.9,2.64C36.65,38.3,36.77,39.03,36.62,39.61z" style="fill:#f26bf2"></path>
      </g>
      <g>
        <path d="M35.51,28.07c-0.13,0.5-0.36,0.94-0.68,1.29c-0.42,0.49-0.98,0.84-1.6,0.98c-1.4-0.6-2.2-2.19-1.79-3.74
				c0.3-1.17,1.2-2.01,2.27-2.28C35.11,24.93,35.91,26.51,35.51,28.07z" style="fill:#f26bf2"></path>
      </g>
    </g>
    <g>
      <path d="M29.64,32.77c0.26,0.02,0.57,0.11,0.65,0.36c0.07,0.22-0.09,0.46-0.29,0.56c-0.2,0.11-0.43,0.12-0.66,0.14
			c-0.56,0.05-1.11,0.18-1.64,0.37c-0.25,0.09-1.07,0.71-1.28,0.32c-0.03-0.05-0.03-0.11-0.02-0.17c0.05-0.38,0.37-0.66,0.69-0.87
			C27.84,33.01,28.77,32.71,29.64,32.77z" style="fill:#fff"></path>
    </g>
    <g>
      <path d="M14.89,56.39c-2.32,0-3.99-0.64-4.9-1.9c-1.9-2.65-0.04-7.68,5.12-13.79c0.16-0.19,0.45-0.22,0.65-0.05
			c0.19,0.16,0.22,0.45,0.06,0.65c-4.79,5.68-6.69,10.41-5.07,12.66c1.41,1.97,5.48,2.02,11.18,0.16c5.94-1.95,13-5.73,19.88-10.65
			c13.82-9.89,22.96-21.81,19.95-26.01c-1.74-2.43-7.34-1.95-14.98,1.28c-0.23,0.1-0.5-0.01-0.6-0.25c-0.1-0.23,0.01-0.5,0.25-0.6
			c8.19-3.46,14.05-3.81,16.09-0.96c3.41,4.77-5.44,16.76-20.16,27.3c-6.95,4.97-14.1,8.8-20.13,10.78
			C19.34,55.92,16.88,56.39,14.89,56.39z"></path>
    </g>
    <g>
      <circle cx="10.06" cy="54.51" r="6.81" style="fill:#fff"></circle>
      <path d="M10.06,61.78c-4.01,0-7.27-3.26-7.27-7.27s3.26-7.27,7.27-7.27s7.27,3.26,7.27,7.27S14.06,61.78,10.06,61.78z
			 M10.06,48.16c-3.5,0-6.35,2.85-6.35,6.35c0,3.5,2.85,6.35,6.35,6.35s6.35-2.85,6.35-6.35C16.41,51.01,13.56,48.16,10.06,48.16z"></path>
    </g>
    <g>
      <path d="M14.36,56.71l-0.07,0.08c-0.14,0.17-0.37,0.22-0.56,0.15c-0.04,0.15-0.18,0.26-0.3,0.4
			c-0.39,0.49-0.95,0.79-1.57,0.85c-1.42,0.13-2.59-0.85-3.63-1.67c-0.09-0.07-0.17-0.15-0.25-0.23C7.07,55.33,6,54.27,5.99,52.85
			c0-0.05,0-0.11,0.01-0.16c0.04-0.56,0.28-1.08,0.69-1.48c0.13-0.12,0.23-0.28,0.37-0.33c-0.19-0.2-0.19-0.52,0.01-0.72l0.07-0.07
			c0.2-0.2,0.53-0.21,0.73,0l1.61,1.59c0.2,0.2,0.21,0.53,0,0.73l-0.07,0.07c-0.16,0.16-0.41,0.2-0.6,0.1
			c-0.01,0.23-0.15,0.38-0.27,0.54c-0.05,0.07-0.1,0.14-0.14,0.22c-0.11,0.25,0.06,0.48,0.23,0.67c0.04,0.04,0.07,0.09,0.1,0.13
			c0.38,0.34,0.76,0.68,1.15,1.02c0.26,0.23,0.53,0.55,0.85,0.69c0.37,0.18,0.8-0.17,1.05-0.43c0.01-0.01,0.02-0.03,0.04-0.04
			c-0.19-0.18-0.21-0.47-0.06-0.67c0.01-0.01,0.02-0.02,0.03-0.04l0.07-0.08c0.18-0.22,0.51-0.25,0.73-0.06l1.73,1.46
			c0.03,0.03,0.06,0.06,0.09,0.09C14.52,56.26,14.51,56.52,14.36,56.71z" style="fill:#145ac1"></path>
    </g>
    <g>
      <path d="M54.33,53.82c-0.53,0-1.16-0.08-1.85-0.24c-0.25-0.06-0.4-0.3-0.34-0.55c0.06-0.25,0.31-0.4,0.55-0.34
			c1.23,0.28,2.17,0.29,2.7,0.02c0.23-0.12,0.5-0.03,0.62,0.2c0.12,0.23,0.03,0.5-0.2,0.62C55.42,53.71,54.92,53.82,54.33,53.82z
			 M49.67,52.63c-0.06,0-0.12-0.01-0.17-0.03c-0.88-0.35-1.83-0.78-2.83-1.28c-0.23-0.11-0.32-0.39-0.21-0.62
			c0.11-0.23,0.39-0.32,0.62-0.21c0.98,0.48,1.91,0.91,2.76,1.25c0.24,0.09,0.35,0.36,0.25,0.6C50.03,52.52,49.85,52.63,49.67,52.63
			z M56.13,50.83c-0.19,0-0.37-0.12-0.44-0.31c-0.25-0.74-0.7-1.63-1.34-2.63c-0.14-0.21-0.07-0.5,0.14-0.64
			c0.21-0.14,0.5-0.07,0.64,0.14c0.68,1.06,1.16,2.02,1.43,2.83c0.08,0.24-0.05,0.5-0.29,0.58C56.23,50.82,56.18,50.83,56.13,50.83z
			 M44.16,49.93c-0.08,0-0.15-0.02-0.22-0.06c-0.86-0.48-1.75-1.01-2.66-1.56c-0.22-0.13-0.29-0.42-0.15-0.63
			c0.13-0.22,0.42-0.29,0.63-0.15c0.9,0.55,1.78,1.07,2.63,1.54c0.22,0.12,0.3,0.4,0.18,0.63C44.48,49.84,44.33,49.93,44.16,49.93z
			 M38.92,46.74c-0.09,0-0.17-0.02-0.25-0.07c-0.84-0.55-1.7-1.13-2.56-1.72c-0.21-0.14-0.26-0.43-0.12-0.64
			c0.14-0.21,0.43-0.26,0.64-0.12c0.85,0.59,1.71,1.16,2.53,1.71c0.21,0.14,0.27,0.42,0.13,0.64
			C39.22,46.67,39.07,46.74,38.92,46.74z M52.96,45.6c-0.14,0-0.27-0.06-0.36-0.18c-0.43-0.55-0.9-1.13-1.4-1.71
			c-0.17-0.19-0.14-0.48,0.05-0.65c0.19-0.17,0.48-0.14,0.65,0.05c0.51,0.6,0.99,1.18,1.43,1.74c0.16,0.2,0.12,0.49-0.08,0.65
			C53.16,45.57,53.06,45.6,52.96,45.6z M33.88,43.25c-0.09,0-0.19-0.03-0.27-0.09c-0.82-0.59-1.64-1.21-2.47-1.84
			c-0.2-0.15-0.24-0.44-0.09-0.64c0.15-0.2,0.44-0.24,0.65-0.09c0.82,0.63,1.64,1.24,2.45,1.83c0.21,0.15,0.25,0.44,0.1,0.64
			C34.16,43.18,34.02,43.25,33.88,43.25z M29,39.52c-0.1,0-0.2-0.03-0.29-0.1c-0.81-0.65-1.61-1.3-2.38-1.95
			c-0.19-0.16-0.22-0.45-0.06-0.65c0.16-0.2,0.45-0.22,0.65-0.06c0.77,0.64,1.56,1.29,2.37,1.94c0.2,0.16,0.23,0.45,0.07,0.65
			C29.27,39.46,29.14,39.52,29,39.52z M24.3,35.58c-0.11,0-0.22-0.04-0.3-0.11c-0.79-0.69-1.55-1.38-2.29-2.06
			c-0.19-0.17-0.2-0.46-0.03-0.65c0.17-0.19,0.46-0.2,0.65-0.03c0.73,0.68,1.49,1.36,2.27,2.04c0.19,0.17,0.21,0.46,0.04,0.65
			C24.55,35.53,24.43,35.58,24.3,35.58z M19.79,31.42c-0.12,0-0.23-0.04-0.32-0.13c-0.75-0.73-1.48-1.47-2.17-2.19
			c-0.18-0.18-0.17-0.47,0.01-0.65c0.18-0.18,0.47-0.17,0.65,0.01c0.68,0.71,1.41,1.44,2.15,2.17c0.18,0.18,0.19,0.47,0.01,0.65
			C20.03,31.37,19.91,31.42,19.79,31.42z M15.56,26.98c-0.13,0-0.25-0.05-0.35-0.16c-0.72-0.82-1.39-1.62-1.98-2.38
			c-0.16-0.2-0.12-0.49,0.08-0.65c0.2-0.16,0.49-0.12,0.65,0.08c0.58,0.74,1.24,1.53,1.95,2.34c0.17,0.19,0.15,0.48-0.04,0.65
			C15.78,26.94,15.67,26.98,15.56,26.98z M11.81,22.12c-0.15,0-0.3-0.08-0.39-0.21c-0.68-1.06-1.16-2.02-1.44-2.83
			c-0.08-0.24,0.05-0.5,0.29-0.58c0.24-0.08,0.5,0.05,0.58,0.29c0.25,0.74,0.7,1.63,1.34,2.63c0.14,0.21,0.07,0.5-0.14,0.64
			C11.98,22.1,11.9,22.12,11.81,22.12z M19.67,18.85c-0.07,0-0.14-0.02-0.2-0.05c-0.98-0.48-1.91-0.9-2.76-1.25
			c-0.24-0.09-0.35-0.36-0.25-0.6c0.09-0.24,0.36-0.35,0.6-0.25c0.88,0.35,1.83,0.78,2.83,1.28c0.23,0.11,0.32,0.39,0.21,0.62
			C20,18.76,19.83,18.85,19.67,18.85z M10.95,16.66c-0.17,0-0.33-0.09-0.41-0.25c-0.12-0.23-0.03-0.5,0.2-0.62
			c0.74-0.38,1.85-0.4,3.33-0.06c0.25,0.06,0.4,0.3,0.34,0.55c-0.06,0.25-0.31,0.4-0.55,0.34c-1.23-0.29-2.17-0.29-2.7-0.02
			C11.09,16.64,11.02,16.66,10.95,16.66z"></path>
    </g>
    <g>
      <path d="M12.5,13.8c0,2.39-1.94,4.33-4.33,4.33c-0.72,0-1.39-0.18-1.98-0.49c-1.39-0.71-2.34-2.16-2.34-3.83
			c0-2.38,1.94-4.32,4.32-4.32c1.9,0,3.52,1.23,4.1,2.93C12.42,12.85,12.5,13.32,12.5,13.8z" style="fill:#f7c957"></path>
    </g>
    <g>
      <path d="M11.77,13.81c0,1.99-1.61,3.6-3.6,3.6c-0.6,0-1.15-0.15-1.65-0.41c-0.13-0.37-0.19-0.76-0.19-1.16
			c0-1.98,1.61-3.6,3.6-3.6c0.6,0,1.16,0.15,1.66,0.41C11.71,13.01,11.77,13.41,11.77,13.81z" style="fill:#ffd863"></path>
    </g>
    <g>
      <path d="M8.11,18.68c-0.78,0-1.52-0.18-2.2-0.55c-1.59-0.81-2.58-2.44-2.58-4.24c0-2.64,2.14-4.78,4.78-4.78
			c2.06,0,3.88,1.3,4.53,3.25c0.17,0.48,0.26,1,0.26,1.53C12.9,16.54,10.75,18.68,8.11,18.68z M8.11,10.04
			c-2.13,0-3.86,1.73-3.86,3.86c0,1.45,0.8,2.77,2.08,3.42c0.55,0.3,1.15,0.44,1.77,0.44c2.13,0,3.87-1.74,3.87-3.87
			c0-0.43-0.07-0.85-0.2-1.23C11.25,11.09,9.78,10.04,8.11,10.04z"></path>
    </g>
    <g>
      <path d="M59.96,55.35c0,2.67-2.16,4.83-4.83,4.83c-0.8,0-1.55-0.2-2.21-0.55c-1.55-0.79-2.61-2.41-2.61-4.28
			c0-2.66,2.16-4.82,4.82-4.82c2.13,0,3.93,1.37,4.57,3.27C59.87,54.28,59.96,54.81,59.96,55.35z" style="fill:#f7c957"></path>
    </g>
    <g>
      <path d="M59.15,55.36c0,2.22-1.8,4.02-4.02,4.02c-0.67,0-1.29-0.16-1.84-0.46c-0.14-0.41-0.21-0.84-0.21-1.3
			c0-2.21,1.8-4.01,4.01-4.01c0.67,0,1.3,0.16,1.85,0.46C59.07,54.47,59.15,54.91,59.15,55.36z" style="fill:#ffd863"></path>
    </g>
    <g>
      <path d="M55.06,60.74c-0.86,0-1.68-0.2-2.43-0.61c-1.75-0.9-2.85-2.69-2.85-4.68c0-2.91,2.37-5.28,5.28-5.28
			c2.27,0,4.29,1.44,5.01,3.59c0.19,0.53,0.28,1.1,0.28,1.69C60.35,58.37,57.98,60.74,55.06,60.74z M55.06,51.09
			c-2.4,0-4.36,1.96-4.36,4.36c0,1.64,0.9,3.13,2.36,3.87c0.63,0.33,1.3,0.5,2,0.5c2.41,0,4.37-1.96,4.37-4.37
			c0-0.49-0.08-0.96-0.23-1.39C58.6,52.28,56.94,51.09,55.06,51.09z"></path>
    </g>
    <g>
      <path d="M62.27,10.15c0,1.72-0.99,3.09-1.85,4.49c-0.56,0.91-1.1,1.83-1.63,2.75c-0.36,0.62-0.71,1.24-1.06,1.86
			c-0.18,0.31-0.35,0.62-0.53,0.93c-0.08,0.15-0.16,0.29-0.25,0.44c-0.06,0.1-0.12,0.23-0.21,0.3c-0.06,0.04-0.14,0.06-0.21,0.05
			c-0.15-0.03-0.24-0.2-0.31-0.32c-0.09-0.15-0.17-0.3-0.25-0.45c-0.42-0.83-0.85-1.65-1.27-2.48c-0.67-1.31-1.35-2.61-2.04-3.91
			c-0.62-1.16-1.33-2.3-1.33-3.66c0-3.03,2.45-5.48,5.47-5.48C59.82,4.68,62.27,7.13,62.27,10.15z" style="fill:#fff"></path>
      <path d="M56.58,21.44c-0.05,0-0.1,0-0.14-0.01c-0.33-0.07-0.5-0.34-0.59-0.49c-0.12-0.19-0.21-0.36-0.3-0.52
			c-0.24-0.48-0.49-0.95-0.73-1.43l-0.54-1.04c-0.67-1.31-1.35-2.6-2.04-3.9l-0.22-0.41c-0.57-1.06-1.16-2.15-1.16-3.47
			c0-3.27,2.66-5.94,5.93-5.94c3.27,0,5.94,2.66,5.94,5.94c0,1.66-0.84,2.99-1.64,4.28l-0.28,0.45c-0.5,0.81-1.02,1.68-1.62,2.74
			c-0.36,0.62-0.71,1.24-1.06,1.86l-0.78,1.37c-0.09,0.16-0.18,0.32-0.34,0.44C56.89,21.39,56.74,21.44,56.58,21.44z M56.8,5.14
			c-2.76,0-5.01,2.25-5.01,5.01c0,1.08,0.51,2.03,1.05,3.03l0.22,0.42c0.69,1.3,1.38,2.6,2.05,3.91l0.54,1.04
			c0.25,0.48,0.49,0.96,0.74,1.44c0.06,0.12,0.13,0.24,0.2,0.36l0.75-1.32c0.35-0.62,0.71-1.25,1.06-1.87
			c0.61-1.06,1.13-1.94,1.64-2.76l0.28-0.45c0.77-1.23,1.5-2.39,1.5-3.79C61.81,7.39,59.56,5.14,56.8,5.14z"></path>
    </g>
    <g>
      <circle cx="56.9" cy="10.2" r="3.21" style="fill:#145ac1"></circle>
    </g>
    <g>
      <path d="M57.96,9.6c0.07,0.11,0.13,0.22,0.24,0.3c0.14,0.1,0.35,0.11,0.49,0.01c0.28-0.18,0.26-0.6,0.13-0.9
			c-0.39-0.95-1.46-1.55-2.44-1.24c-0.14,0.04-0.29,0.12-0.32,0.26C56,8.23,56.21,8.38,56.39,8.47C57,8.78,57.56,9,57.96,9.6z" style="fill:#fff"></path>
    </g>
    <g>
      <path d="M7.88,15.52c0.19,0.08,0.42,0.19,0.46,0.39c0.03,0.16-0.08,0.32-0.22,0.41c-0.2,0.13-0.46,0.16-0.7,0.15
			c-0.83-0.05-1.62-0.51-2.07-1.2c-0.23-0.36-0.37-0.78-0.41-1.2c-0.03-0.33-0.04-0.95,0.19-1.22c0.08-0.09,0.16-0.18,0.27-0.23
			c0.11-0.05,0.24-0.06,0.34,0c0.11,0.06,0.16,0.19,0.18,0.32c0.01,0.12,0,0.25,0.01,0.38c0.03,0.46,0.38,0.9,0.67,1.24
			C6.94,14.97,7.38,15.31,7.88,15.52z" style="fill:#fff"></path>
    </g>
  </g>
</svg>
