<svg xmlns="http://www.w3.org/2000/svg" viewBox="0 0 500 500" id="reminder-bell">
  <path fill="#68bcdd" d="M325.24,127.26v242H8V162.81l.18-.18,45.92,7.66-6.92-43Zm-165.32,174,90.25-98.72-22.68-20.72L149.57,267l-33-42.76L92.25,243l44.16,57.23a15.36,15.36,0,0,0,11.52,6c.23,0,.44,0,.64,0A15.39,15.39,0,0,0,159.92,301.25Z"></path>
  <path fill="#f4f4f4" d="M250.17,202.53l-90.25,98.72a15.39,15.39,0,0,1-11.35,5c-.2,0-.41,0-.64,0a15.36,15.36,0,0,1-11.52-6L92.25,243l24.33-18.77,33,42.76,77.92-85.22Z"></path>
  <polygon fill="#237fb7" points="47.19 127.27 54.11 170.29 8.19 162.63 43.66 127.27 47.19 127.27"></polygon>
  <polygon fill="none" stroke="#1c1c2d" stroke-linecap="round" stroke-linejoin="round" stroke-width="3" points="8.19 162.63 43.66 127.27 47.19 127.27 325.24 127.27 325.24 369.23 8.01 369.23 8.01 162.81 8.19 162.63"></polygon>
  <polyline fill="none" stroke="#1c1c2d" stroke-linecap="round" stroke-linejoin="round" stroke-width="3" points="8.01 162.6 8.19 162.63 54.11 170.29 47.19 127.27"></polyline>
  <path fill="#237fb7" d="M358.84,345.16A12.39,12.39,0,0,1,352.89,359l-24.75,13.92a23.42,23.42,0,0,1-10.12,3,49.1,49.1,0,0,1-12.12-.72c3.89-2.65,7.8-5.31,11.74-7.94.44-49.8-34.8-59.24-34.8-59.24l-16,6.26.49-1.6a20.36,20.36,0,0,1,12.46-13.22l30.47-11.24A18.05,18.05,0,0,1,327,290.38l.16.13c9,6.5,22.42,20.81,30.75,51.16C358.24,342.81,358.54,344,358.84,345.16Z"></path>
  <path fill="#f4f4f4" d="M448 280.49a23 23 0 01-15.72 25.15c-22 7.09-47.9 20.28-74.34 36-8.33-30.35-21.72-44.66-30.75-51.16 50.17-19.83 90.33-35.89 90.33-35.89S443.52 250.38 448 280.49zM189.49 402.07c-10.05-26.37-32.79-42.72-53-39.35l-.07-.45c16.15-4.87 72.83-25.49 130.45-48l16-6.26s35.24 9.44 34.8 59.24c-3.94 2.63-7.85 5.29-11.74 7.94-50.42 34.56-110.11 77.41-126.22 89C194.27 451.89 198.84 426.57 189.49 402.07z"></path>
  <path fill="#e0e0e0" d="M189.49,402.07c9.35,24.5,4.78,49.82-9.81,62.09-2,1.42-3.29,2.36-3.85,2.78,0,0,0,0,0,0a31.76,31.76,0,0,1-5.26,2.6c-21.54,8.21-48-8.67-59.08-37.72-8-20.9-6.56-53,11.64-56.48,7.11-1.36,16.76,1.62,29.4,11.29v12.42c-27.6-28.51-35.43-2.29-35.43-2.29l.26-.47c-2.58,9.57-2,21.1,2.3,32.41,8.76,23,29.68,36.32,46.72,29.82s23.74-30.39,15-53.36a55.33,55.33,0,0,0-13.1-20,47,47,0,0,0-7.44-5.9c-7.83-5-16.51-7-24.39-5a21.87,21.87,0,0,1-.91-3.33c-1.09-5.55.84-8.17.84-8.17l.14,0C156.7,359.35,179.44,375.7,189.49,402.07Z"></path>
  <path fill="#d8ccca" d="M181.33,405.18c8.76,23,2,46.86-15,53.36s-38-6.85-46.72-29.82c-4.32-11.31-4.88-22.84-2.3-32.41l-.26.47s7.83-26.22,35.43,2.29l15.64-13.8.09-.09A55.33,55.33,0,0,1,181.33,405.18Z"></path>
  <path fill="#68bcdd" d="M358.84,345.16c-.3-1.18-.6-2.35-.92-3.49-8.33-30.35-21.72-44.66-30.75-51.16l-.16-.13a18.05,18.05,0,0,0-16.74-2.21l-16.93,6.24c14.42,8,40.93,28.41,47.26,71.47L352.89,359A12.39,12.39,0,0,0,358.84,345.16Z"></path>
  <path fill="#e0e0e0" d="M432.26 305.64a23 23 0 0015.8-19.15c-30.76 6.78-64.08 20.41-96.51 36.84a138.09 138.09 0 016.37 18.34C384.36 325.92 410.27 312.73 432.26 305.64zM179.68 464.16c16.11-11.6 75.8-54.45 126.22-89 3.89-2.65 7.8-5.31 11.74-7.94a82.62 82.62 0 00-3-23.85c-51 29.39-96.15 62.09-120.38 80.49C195.21 440.51 189.92 455.55 179.68 464.16z"></path>
  <path fill="none" stroke="#1c1c2d" stroke-linecap="round" stroke-linejoin="round" stroke-width="3" d="M327.17 290.51c50.17-19.83 90.33-35.89 90.33-35.89s26-4.24 30.48 25.87a23 23 0 01-15.72 25.15c-22 7.09-47.9 20.28-74.34 36M175.83 466.94c.56-.42 1.88-1.36 3.85-2.78 16.11-11.6 75.8-54.45 126.22-89 3.89-2.65 7.8-5.31 11.74-7.94.44-49.8-34.8-59.24-34.8-59.24l-16 6.26c-57.62 22.55-114.3 43.17-130.45 48M175.51 467.17l.29-.21"></path>
  <path fill="none" stroke="#1c1c2d" stroke-linecap="round" stroke-linejoin="round" stroke-width="3" d="M266.85 314.23l.49-1.6a20.36 20.36 0 0112.46-13.22l30.47-11.24A18.05 18.05 0 01327 290.38l.16.13c9 6.5 22.42 20.81 30.75 51.16.32 1.14.62 2.31.92 3.49A12.39 12.39 0 01352.89 359l-24.75 13.92a23.42 23.42 0 01-10.12 3 49.1 49.1 0 01-12.12-.72M160.78 379.3l-8.28 7.35C139.86 377 130.21 374 123.1 375.36c-18.2 3.5-19.61 35.58-11.64 56.48 11.08 29.05 37.54 45.93 59.08 37.72a31.76 31.76 0 005.26-2.6s0 0 0 0a31.9 31.9 0 003.85-2.78c14.59-12.27 19.16-37.59 9.81-62.09-10.05-26.37-32.79-42.72-53-39.35l-.14 0s-1.93 2.62-.84 8.17a21.87 21.87 0 00.91 3.33c7.88-2 16.56.05 24.39 5a47 47 0 017.44 5.9 55.33 55.33 0 0113.1 20c8.76 23 2 46.86-15 53.36s-38-6.85-46.72-29.82c-4.32-11.31-4.88-22.84-2.3-32.41l-.26.47s7.83-26.22 35.43 2.29l15.64-13.8"></path>
  <line x1="123.06" x2="135.02" y1="375.15" y2="371.01" fill="none" stroke="#1c1c2d" stroke-linecap="round" stroke-linejoin="round" stroke-width="3"></line>
  <line x1="152.5" x2="152.5" y1="386.65" y2="399.07" fill="none" stroke="#1c1c2d" stroke-linecap="round" stroke-linejoin="round" stroke-width="3"></line>
  <path fill="#ffc257" d="M283.23 219.59H245.84a12.31 12.31 0 01-12.3-12.31V196.47a12.31 12.31 0 0112.3-12.31H379.51a12.3 12.3 0 0112.29 12.31v10.81a12.3 12.3 0 01-12.29 12.31H283.23zM366.23 87.16l18 96.55H241.13l18.68-96.88a54.16 54.16 0 01106.42.33z"></path>
  <path fill="#f44764" d="M283.23,219.59h58.43a29.22,29.22,0,0,1-58.43,0Z"></path>
  <path fill="#37b790" d="M325.79,43.61l-.2.8a54.1,54.1,0,0,0-25.79.14l-.24-.94a13.12,13.12,0,0,1,26.23,0Z"></path>
  <path fill="#ffe9c5" d="M379.88 160.41L366.23 87.16a54.14 54.14 0 00-40.64-42.75 54 54 0 00-43.15 8C305.85 69.89 344 103.94 379.88 160.41zM391.8 196.47a12.3 12.3 0 00-12.29-12.31H284.14c24.35 11.32 59 22.65 106.49 28.36a12.38 12.38 0 001.17-5.24z"></path>
  <ellipse cx="271.9" cy="151.72" fill="#ffe9c5" rx="10.23" ry="20.9"></ellipse>
  <path fill="#ff99b1" d="M312.44,248.58a29,29,0,0,0,16.61-5.19C315,232,298.13,229,284.81,228.83A29.21,29.21,0,0,0,312.44,248.58Z"></path>
  <path fill="none" stroke="#1c1c2d" stroke-linecap="round" stroke-linejoin="round" stroke-width="3" d="M299.8 44.55a54.19 54.19 0 00-40 42.28l-18.68 96.88H384.22l-18-96.55a54.14 54.14 0 00-40.64-42.75 54.1 54.1 0 00-25.79.14zM299.56 43.61a13.12 13.12 0 0126.23 0M283.23 219.59H245.84a12.31 12.31 0 01-12.3-12.31V196.47a12.31 12.31 0 0112.3-12.31H379.51a12.3 12.3 0 0112.29 12.31v10.81a12.3 12.3 0 01-12.29 12.31H283.23z"></path>
  <path fill="none" stroke="#1c1c2d" stroke-linecap="round" stroke-linejoin="round" stroke-width="3" d="M341.66,219.36v.23a29.22,29.22,0,0,1-58.43,0v-.23"></path>
  <circle cx="24.36" cy="399.85" r="6.67" fill="#ffc257"></circle>
  <circle cx="24.36" cy="399.85" r="6.67" fill="none" stroke="#1c1c2d" stroke-linecap="round" stroke-linejoin="round" stroke-width="3"></circle>
  <circle cx="399.5" cy="366.47" r="6.67" fill="#ffc257"></circle>
  <circle cx="399.5" cy="366.47" r="6.67" fill="none" stroke="#1c1c2d" stroke-linecap="round" stroke-linejoin="round" stroke-width="3"></circle>
  <circle cx="432.4" cy="101.48" r="6.67" fill="#ffc257"></circle>
  <circle cx="432.4" cy="101.48" r="6.67" fill="none" stroke="#1c1c2d" stroke-linecap="round" stroke-linejoin="round" stroke-width="3"></circle>
  <path fill="#37b790" d="M68.83,408.87c18.24-19.21,33-4.42,13.82,13.81,19.21,18.25,4.42,33-13.82,13.83-18.24,19.2-33,4.42-13.82-13.83C35.8,404.45,50.59,389.66,68.83,408.87Z"></path>
  <path fill="none" stroke="#1c1c2d" stroke-linecap="round" stroke-linejoin="round" stroke-width="3" d="M82.65,422.68c19.21,18.25,4.42,33-13.82,13.83-18.24,19.2-33,4.42-13.82-13.83-19.21-18.23-4.42-33,13.82-13.81C87.07,389.66,101.86,404.45,82.65,422.68Z"></path>
  <circle cx="129.07" cy="56.92" r="28.55" fill="#237fb7"></circle>
  <circle cx="129.07" cy="56.92" r="28.55" fill="none" stroke="#1c1c2d" stroke-linecap="round" stroke-linejoin="round" stroke-width="3"></circle>
  <circle cx="46.04" cy="87.48" r="12.23" fill="#f44764"></circle>
  <circle cx="46.04" cy="87.48" r="12.23" fill="none" stroke="#1c1c2d" stroke-linecap="round" stroke-linejoin="round" stroke-width="3"></circle>
  <path fill="#f44764" d="M483.43,177.62a8.56,8.56,0,0,1,0,17.12H471v12.45a8.56,8.56,0,0,1-17.12,0V194.74H441.41a8.56,8.56,0,0,1,0-17.12h12.45V165.17a8.56,8.56,0,0,1,17.12,0v12.45Z"></path>
  <path fill="none" stroke="#1c1c2d" stroke-linecap="round" stroke-linejoin="round" stroke-width="3" d="M483.43,177.62H471V165.17a8.56,8.56,0,0,0-17.12,0v12.45H441.41a8.56,8.56,0,0,0,0,17.12h12.45v12.45a8.56,8.56,0,0,0,17.12,0V194.74h12.45a8.56,8.56,0,0,0,0-17.12Z"></path>
</svg>
