<svg xmlns="http://www.w3.org/2000/svg" xml:space="preserve" style="enable-background:new 0 0 512 512" viewBox="0 0 512 512" id="safe-space">
  <g id="_x30_4_Safe_Space">
    <g>
      <g>
        <path d="M453.984,83.444l8.923,151.434H293.075l8.923-151.434c2.371-40.233,35.69-71.647,75.993-71.647h0
				C418.294,11.798,451.613,43.211,453.984,83.444z" style="fill:#e1e2fa"></path>
      </g>
      <g>
        <path d="M256.443,490.701L256.443,490.701c0,5.239-4.247,9.486-9.486,9.486H21.009
				c-5.239,0-9.486-4.247-9.486-9.486v0c0-44.612,36.165-80.778,80.778-80.778h83.365
				C220.277,409.923,256.443,446.088,256.443,490.701z" style="fill:#ffb061"></path>
      </g>
      <g>
        <rect width="59.458" height="50.115" x="104.23" y="371.594" style="fill:#fffeff"></rect>
      </g>
      <g>
        <path d="M60.104,294.362v-29.753c0-39.135,31.725-70.86,70.86-70.86h17.141
				c13.681,0,25.292,10.035,27.273,23.572v0c30.667,4.819,40.79,26.385,26.159,68.129L60.104,294.362z" style="fill:#ffb061"></path>
      </g>
      <g>
        <ellipse cx="202.095" cy="301.899" rx="18.014" ry="18.015" style="fill:#fffeff" transform="rotate(-76.714 202.119 301.916)"></ellipse>
      </g>
      <g>
        <ellipse cx="65.822" cy="301.899" rx="18.014" ry="18.015" style="fill:#fffeff" transform="rotate(-76.714 65.835 301.92)"></ellipse>
      </g>
      <g>
        <polygon points="104.223 389.838 133.983 421.709 107.957 444.159 81.814 412.666" style="fill:#e1e2fa"></polygon>
      </g>
      <g>
        <polygon points="163.742 389.838 133.983 421.709 160.008 444.159 186.151 412.666" style="fill:#e1e2fa"></polygon>
      </g>
      <g>
        <path d="M198.926,288.504l0,27.789c0,34.458-27.934,62.392-62.392,62.392h-5.15
				c-34.458,0-62.392-27.934-62.392-62.392l0-32.28c17.396,1.228,32.634-5.005,46.087-17.412c3.964-3.655,8.424-6.793,13.389-8.897
				c14.946-6.335,28.059-2.269,39.436,11.648c12.153-2.962,21.605-1.364,27.263,6.643
				C197.733,279.628,198.926,284.056,198.926,288.504z" style="fill:#fffeff"></path>
      </g>
      <g>
        <path d="M500.475,264.099L500.475,264.099c0,5.239-4.247,9.486-9.486,9.486H265.041
				c-5.239,0-9.486-4.247-9.486-9.486v0c0-44.612,36.165-80.778,80.778-80.778h83.365
				C464.31,183.321,500.475,219.487,500.475,264.099z" style="fill:#e23411"></path>
      </g>
      <g>
        <path d="M407.72,167.443v20.386c0,16.419-13.31,29.729-29.729,29.729h0
				c-16.419,0-29.729-13.31-29.729-29.729v-20.386H407.72z" style="fill:#fffeff"></path>
      </g>
      <g>
        <ellipse cx="446.128" cy="111.634" rx="18.014" ry="18.015" style="fill:#fffeff" transform="rotate(-76.714 446.163 111.63)"></ellipse>
      </g>
      <g>
        <ellipse cx="309.854" cy="111.634" rx="18.014" ry="18.015" style="fill:#fffeff" transform="rotate(-76.714 309.88 111.634)"></ellipse>
      </g>
      <g>
        <path d="M442.958,98.239v27.789c0,34.458-27.934,62.392-62.392,62.392h-5.15
				c-34.458,0-62.392-27.934-62.392-62.392l0-32.28c17.396,1.228,32.634-5.005,46.087-17.412c3.964-3.655,8.424-6.793,13.389-8.897
				c14.946-6.335,28.059-2.269,39.436,11.648c12.153-2.962,21.605-1.364,27.263,6.643C441.765,89.362,442.958,93.791,442.958,98.239
				z" style="fill:#fffeff"></path>
      </g>
      <g>
        <path d="M378.015,500.187c10.961-2.936,21.658-6.707,32.031-11.501
				c33.661-15.556,55.047-49.452,55.047-86.535v-70.392c-34.238,0.891-62.466-15.76-87.078-42.966
				c-24.612,27.206-52.84,43.858-87.078,42.966v70.392c0,37.082,21.386,70.979,55.047,86.535
				C356.357,493.48,367.054,497.251,378.015,500.187z" style="fill:#e1e2fa"></path>
      </g>
      <path d="M21.026,505.093h225.916c7.936,0,14.392-6.458,14.392-14.394c0-43.605-32.797-79.533-74.993-84.822
			l-17.765-18.098v-12.335c18.629-10.133,31.91-28.83,34.657-50.756c12.092-0.607,21.768-10.548,21.768-22.788
			c0-10.447-7.072-19.185-16.65-21.927c6.377-21.238,6.212-37.411-0.759-49.069c-5.443-9.111-14.888-15.089-28.096-17.806
			c-3.691-14.041-16.607-24.24-31.39-24.24h-17.142c-41.766,0-75.75,33.981-75.75,75.75v17.115
			c-7.273,3.843-12.295,11.396-12.295,20.177c0,12.238,9.674,22.178,21.763,22.787c2.747,21.926,16.027,40.622,34.657,50.755v12.389
			l-17.604,17.934c-17.664,2.181-34.234,9.722-47.469,21.92c-1.986,1.831-2.111,4.923-0.282,6.909
			c1.834,1.986,4.923,2.115,6.909,0.282c10.57-9.741,23.54-16.146,37.457-18.729l25.845,31.134c1.75,2.103,4.88,2.369,6.957,0.58
			l22.829-19.696l22.833,19.696c2.082,1.792,5.211,1.518,6.957-0.58l25.817-31.101c35.205,6.566,61.965,37.439,61.965,74.517
			c0,2.545-2.068,4.615-4.613,4.615H21.026c-2.545,0-4.613-2.07-4.613-4.615c0-8.447,1.375-16.691,4.087-24.503
			c0.888-2.55-0.463-5.338-3.013-6.224c-2.559-0.883-5.334,0.466-6.222,3.015c-3.075,8.846-4.632,18.169-4.632,27.711
			C6.634,498.635,13.09,505.093,21.026,505.093z M215.222,301.9c0,6.648-4.987,12.098-11.407,12.95v-25.903
			C210.236,289.8,215.222,295.25,215.222,301.9z M64.993,264.608c0-36.375,29.595-65.97,65.97-65.97h17.142
			c11.173,0,20.819,8.337,22.433,19.391c0.31,2.12,1.962,3.791,4.078,4.123c12.143,1.908,20.184,6.413,24.586,13.771
			c5.135,8.586,5.266,21.53,0.626,38.383c-6.634-10.584-17.697-12.731-30.116-10.352c-12.4-13.757-27.265-17.488-43.156-10.753
			c-5.119,2.17-10.094,5.47-14.793,9.808c-12.959,11.949-26.787,17.242-42.43,16.127c-4.438-0.261-3.627-0.083-4.34-0.057V264.608z
			 M52.698,301.9c0-6.648,4.984-12.098,11.403-12.952v25.902C57.682,313.995,52.698,308.547,52.698,301.9z M73.879,316.292v-27.241
			c16.158-0.165,31.109-6.494,44.512-18.856c3.872-3.572,7.903-6.26,11.985-7.988c12.854-5.448,23.579-2.189,33.74,10.24
			c1.194,1.461,3.108,2.094,4.947,1.657c17.58-4.296,24.973,3.829,24.973,14.401v27.788c0,31.708-25.794,57.505-57.5,57.505h-5.152
			C99.673,373.796,73.879,348,73.879,316.292z M131.384,383.575h5.152c7.81,0,15.281-1.406,22.261-3.865v8.262l-24.815,26.573
			l-24.863-26.629v-8.207C116.1,382.169,123.572,383.575,131.384,383.575z M108.536,437.203L88.4,412.941l15.738-16.034l22.8,24.421
			L108.536,437.203z M159.432,437.203l-18.407-15.874l22.805-24.421l15.738,16.034L159.432,437.203z" style="fill:#20004c"></path>
      <path d="M113.177 313.491c-1.719 1.717-4.746 1.721-6.47 0-1.91-1.91-5.004-1.91-6.914 0-1.91 1.91-1.91 5.004 0 6.914 5.596 5.596 14.702 5.596 20.298 0 1.91-1.91 1.91-5.004 0-6.914S115.087 311.581 113.177 313.491zM168.127 320.403c1.905-1.91 1.905-5.007-.005-6.914-1.91-1.905-5.009-1.91-6.919.005-1.709 1.714-4.746 1.717-6.465-.002-1.91-1.91-5.004-1.91-6.914 0s-1.91 5.004 0 6.914C153.415 325.996 162.513 326.017 168.127 320.403zM144.109 359.116c1.91-1.91 1.91-5.004 0-6.914s-5.004-1.91-6.914 0c-1.719 1.719-4.756 1.717-6.465.002-1.91-1.915-5.009-1.91-6.919-.005-1.91 1.908-1.91 5.004-.005 6.914C129.419 364.727 138.518 364.707 144.109 359.116zM265.039 278.474h225.95c7.926 0 14.377-6.449 14.377-14.375 0-30.486-16.056-57.232-40.107-72.418l-3.725-63.212c4.577-4.191 7.5-10.156 7.5-16.836 0-7.651-3.806-14.394-9.586-18.556l-.585-9.92c-2.516-42.757-38.042-76.251-80.873-76.251-42.826 0-78.352 33.494-80.873 76.251l-.584 9.924c-5.778 4.162-9.582 10.903-9.582 18.552 0 6.678 2.922 12.643 7.497 16.833l-3.725 63.246c-24.023 15.192-40.057 41.922-40.057 72.387C250.666 272.026 257.113 278.474 265.039 278.474zM455.142 186.202c-10.016-4.576-21.045-7.254-32.668-7.629 13.37-10.685 22.56-26.338 24.792-44.149 1.649-.083 3.24-.343 4.78-.758L455.142 186.202zM296.73 111.633c0-6.646 4.984-12.095 11.403-12.95v25.902C301.714 123.731 296.73 118.282 296.73 111.633zM317.912 98.784c16.158-.162 31.109-6.492 44.512-18.856 3.877-3.574 7.907-6.26 11.985-7.986 12.854-5.448 23.579-2.192 33.74 10.24 1.194 1.456 3.113 2.096 4.947 1.657 14.344-3.498 19.501 1.01 22.108 4.71 1.877 2.655 2.865 6.004 2.865 9.691v27.788c0 31.708-25.794 57.502-57.5 57.502h-5.152c-31.71 0-57.505-25.794-57.505-57.502V98.784zM375.416 193.309h5.152c7.746 0 15.16-1.382 22.091-3.803-.88 12.903-11.549 23.163-24.67 23.163-13.121 0-23.79-10.26-24.67-23.163C360.253 191.926 367.668 193.309 375.416 193.309zM459.255 111.633c0 6.65-4.987 12.101-11.407 12.953V98.683C454.268 99.535 459.255 104.986 459.255 111.633zM306.877 83.734c2.22-37.598 33.453-67.047 71.113-67.047 37.665 0 68.898 29.449 71.113 67.045l.314 5.332c-1.077-.157-2.151-.33-3.27-.331-.755-2.071-1.701-4.048-2.955-5.825-6.141-8.693-16.025-11.789-29.447-9.218-12.401-13.766-27.274-17.483-43.151-10.753-5.114 2.165-10.094 5.465-14.798 9.805-12.964 11.956-26.845 17.235-42.43 16.127-3.882-.279-4.738-.107-6.803.195L306.877 83.734zM303.936 133.665c1.54.415 3.13.675 4.778.758 2.232 17.812 11.424 33.467 24.796 44.152-11.625.382-22.654 3.067-32.67 7.651L303.936 133.665zM336.333 188.211h7.058c.208 18.911 15.638 34.236 34.599 34.236 18.961 0 34.391-15.326 34.599-34.236h7.11c41.843 0 75.888 34.043 75.888 75.888 0 2.533-2.063 4.596-4.598 4.596h-225.95c-2.531 0-4.593-2.063-4.593-4.596C260.445 222.254 294.491 188.211 336.333 188.211z" style="fill:#20004c"></path>
      <path d="M364.124 130.141c1.91-1.91 1.91-5.004 0-6.914-1.91-1.91-5.004-1.91-6.914 0-1.724 1.721-4.756 1.717-6.47 0-1.91-1.91-5.004-1.91-6.914 0-1.91 1.91-1.91 5.004 0 6.914C349.421 135.737 358.527 135.738 364.124 130.141zM412.159 130.139c1.905-1.91 1.905-5.007-.005-6.914-1.91-1.905-5.009-1.91-6.919.005-1.709 1.714-4.746 1.717-6.465-.002-1.91-1.91-5.004-1.91-6.914 0-1.91 1.91-1.91 5.004 0 6.914C397.447 135.732 406.546 135.752 412.159 130.139zM388.142 168.849c1.91-1.91 1.91-5.004 0-6.914s-5.004-1.91-6.914 0c-1.719 1.719-4.756 1.717-6.465.002-1.91-1.915-5.009-1.91-6.919-.005-1.91 1.908-1.91 5.004-.005 6.914C373.452 174.46 382.55 174.44 388.142 168.849zM465.07 376.461c2.703 0 4.89-2.189 4.89-4.89v-39.799c0-1.318-.535-2.581-1.475-3.502-.95-.922-2.201-1.449-3.538-1.385-30.125.766-57.395-12.756-83.284-41.372-.926-1.024-2.239-1.609-3.624-1.609-1.38 0-2.698.583-3.624 1.607-25.933 28.614-52.978 42.072-83.332 41.375-1.332-.076-2.593.463-3.538 1.385-.941.922-1.475 2.185-1.475 3.502v70.359c0 39.028 22.705 74.742 57.853 90.989 10.471 4.818 21.22 8.669 32.856 11.773.85.225 1.72.215 2.526-.002 11.627-3.113 22.356-6.964 32.813-11.775 24.863-11.503 44.097-33.128 52.758-59.329.85-2.564-.544-5.329-3.104-6.176-2.588-.859-5.334.544-6.179 3.106-7.821 23.643-25.164 43.151-47.573 53.517-9.559 4.4-19.381 7.96-29.987 10.868-10.605-2.896-20.441-6.458-30.015-10.863-31.691-14.65-52.171-46.878-52.171-82.107v-65.46c29.729-.649 56.707-14.007 82.186-40.697 25.441 26.692 52.4 40.05 82.148 40.697v34.9C460.181 374.272 462.368 376.461 465.07 376.461z" style="fill:#20004c"></path>
      <path d="M412.9,363.055l-52.496,52.498l-17.276-17.273c-1.91-1.91-5.004-1.91-6.914,0
			c-1.91,1.91-1.91,5.004,0,6.914l20.733,20.73c0.955,0.955,2.206,1.432,3.457,1.432s2.502-0.477,3.457-1.432l55.953-55.955
			c1.91-1.91,1.91-5.004,0-6.914S414.81,361.145,412.9,363.055z" style="fill:#20004c"></path>
    </g>
  </g>
</svg>
