<svg xmlns="http://www.w3.org/2000/svg" xml:space="preserve" id="tools" x="0" y="0" version="1.1" viewBox="0 0 24 24">
  <path fill="#303C42" d="M0 19.846c0 .556.216 1.078.61 1.47l1.074 1.075a2.078 2.078 0 0 0 3.202-.316 15.563 15.563 0 0 1 3.622-3.83 12.467 12.467 0 0 0 3.103-3.38l1.283-2.052 1.96-1.96c.602-.6 1.898-1.077 3.11-.77a1.481 1.481 0 0 1 .994 1.753.501.501 0 0 0 .135.464l1.053 1.054a.498.498 0 0 0 .708 0l3-3a.5.5 0 0 0 0-.707L22.8 8.593a.496.496 0 0 0-.465-.134A1.504 1.504 0 0 1 22 8.5c-.827 0-1.5-.673-1.5-1.5 0-.107.016-.222.05-.36a.5.5 0 0 0-.128-.469L17.67 3.358A7.96 7.96 0 0 0 12 1c-1.618 0-2.688.535-3.724 1.053A.5.5 0 0 0 8.5 3c2.293 0 3.152.86 4.146 1.854.736.736.109 2.684-.5 3.293l-1.96 1.96-2.052 1.282a12.473 12.473 0 0 0-3.378 3.103 15.563 15.563 0 0 1-3.83 3.623A2.077 2.077 0 0 0 0 19.845z"></path>
  <path fill="#D7CCC8" d="M14.146 10.147L12.5 11.793 11.207 10.5l1.647-1.646c.914-.915 1.736-3.472.5-4.707-.731-.731-1.533-1.533-2.954-1.916.474-.142.992-.23 1.6-.23 1.87 0 3.627.727 4.949 2.049l2.574 2.633c-.015.11-.023.214-.023.317 0 1.47 1.257 2.674 2.776 2.483l.517.517-2.293 2.293-.517-.517a2.483 2.483 0 0 0-1.75-2.656c-1.61-.405-3.27.21-4.087 1.027z"></path>
  <path fill="#FF8F00" d="M1 19.846c0-.362.18-.698.481-.9a16.558 16.558 0 0 0 4.075-3.854c.855-1.14 1.9-2.1 3.109-2.855l1.763-1.102 1.437 1.437-1.102 1.764a11.486 11.486 0 0 1-2.855 3.109 16.551 16.551 0 0 0-3.855 4.074c-.362.542-1.202.625-1.662.165L1.316 20.61A1.073 1.073 0 0 1 1 19.846z"></path>
  <path d="M14.021 10.728zM22.276 9.483C20.757 9.674 19.5 8.469 19.5 7c0-.103.008-.208.023-.317l-1.585-1.621-6.085 6.085.647.646 1.646-1.646c.817-.817 2.476-1.432 4.087-1.027a2.483 2.483 0 0 1 1.75 2.656l.517.517L22.793 10l-.517-.517zM2.39 21.684c.46.46 1.301.377 1.663-.165a16.551 16.551 0 0 1 3.855-4.075c1.14-.855 2.1-1.9 2.855-3.108l1.102-1.764-.719-.718-9.293 9.293.538.537z" opacity=".1"></path>
  <path fill="#303C42" d="M23.147 18.44l-6.364-6.363a.498.498 0 0 0-.497-.126A.991.991 0 0 1 16 12c-.551 0-1-.449-1-1 0-.084.016-.175.049-.286a.5.5 0 0 0-.125-.498l-.716-.716c-.645-.645-1.77-.645-2.415 0l-.043.043L6 3.793V3.08c0-.537-.29-1.036-.756-1.302L2.248.066a.498.498 0 0 0-.602.08l-1.5 1.5a.5.5 0 0 0-.08.602l1.712 2.996C2.044 5.71 2.544 6 3.08 6h.712l5.75 5.75-.042.042C9.178 12.115 9 12.543 9 13c0 .456.178.885.5 1.207l.717.716c.13.131.321.18.497.126A.991.991 0 0 1 11 15c.551 0 1 .449 1 1a.977.977 0 0 1-.049.285.5.5 0 0 0 .125.498l6.363 6.363c.543.543 1.294.854 2.061.854s1.518-.311 2.06-.854l.587-.585c.542-.543.853-1.294.853-2.061s-.311-1.518-.853-2.06z"></path>
  <path fill="#D7CCC8" d="M4.354 5.146A.5.5 0 0 0 4 5h-.92a.502.502 0 0 1-.434-.252L1.124 2.084l.96-.96 2.664 1.522A.501.501 0 0 1 5 3.08V4a.5.5 0 0 0 .147.354l5.896 5.896-.793.793-5.896-5.897z"></path>
  <path fill="#1E88E5" d="M22.44 21.854l-.586.585c-.713.713-1.995.713-2.707 0l-6.168-6.168c.014-.092.021-.182.021-.271 0-1.191-1.034-2.17-2.271-1.979l-.522-.521a.704.704 0 0 1 0-1l2.293-2.293a.724.724 0 0 1 1 0l.522.521A1.799 1.799 0 0 0 14 11c0 1.19 1.022 2.174 2.271 1.979l6.168 6.167c.357.357.561.85.561 1.354s-.204.997-.56 1.354z"></path>
  <path d="M14.022 10.728zM1.124 2.084l1.522 2.664A.502.502 0 0 0 3.081 5H4a.5.5 0 0 1 .354.146l5.896 5.897.397-.397-9.043-9.042-.48.48zM11.354 11.354 10.207 12.5a.704.704 0 0 0 0 1l.522.521C11.966 13.83 13 14.81 13 16c0 .089-.007.18-.021.271l6.168 6.168c.712.713 1.994.713 2.707 0l.293-.293-10.793-10.792z" opacity=".1"></path>
  <linearGradient id="SVGID_1_" x1="-2.402" x2="24.686" y1="7.04" y2="19.671" gradientUnits="userSpaceOnUse">
    <stop offset="0" stop-color="#FFF" stop-opacity=".2"></stop>
    <stop offset="1" stop-color="#FFF" stop-opacity="0"></stop>
  </linearGradient>
  <path fill="url(#SVGID_1_)" d="M16.783 12.077a.498.498 0 0 0-.497-.126A.991.991 0 0 1 16 12c-.551 0-1-.449-1-1 0-.084.016-.175.049-.286.003-.009-.002-.018 0-.027.659-.517 1.819-.882 2.915-.604a1.481 1.481 0 0 1 .994 1.753.501.501 0 0 0 .135.464l1.053 1.054a.498.498 0 0 0 .708 0l3-3a.5.5 0 0 0 0-.707L22.8 8.593a.496.496 0 0 0-.465-.134A1.504 1.504 0 0 1 22 8.5c-.827 0-1.5-.673-1.5-1.5 0-.107.016-.222.05-.36a.5.5 0 0 0-.128-.469L17.67 3.358A7.96 7.96 0 0 0 12 1c-1.618 0-2.688.535-3.724 1.053A.5.5 0 0 0 8.5 3c2.293 0 3.152.859 4.146 1.854.736.735.109 2.684-.5 3.293l-.896.896L6 3.793V3.08c0-.537-.29-1.036-.756-1.302L2.248.066a.498.498 0 0 0-.602.08l-1.5 1.5a.5.5 0 0 0-.08.602l1.712 2.996C2.044 5.71 2.544 6 3.08 6h.712l4.986 4.986-.645.403a12.473 12.473 0 0 0-3.378 3.103 15.563 15.563 0 0 1-3.83 3.623 2.077 2.077 0 0 0-.317 3.202l1.075 1.074a2.078 2.078 0 0 0 3.202-.316 15.563 15.563 0 0 1 3.622-3.83 12.459 12.459 0 0 0 2.932-3.132c.328.164.56.496.56.887a.977.977 0 0 1-.049.285.5.5 0 0 0 .125.498l6.363 6.363c.543.543 1.294.854 2.061.854s1.518-.311 2.06-.854l.586-.585c.543-.543.854-1.294.854-2.061s-.311-1.518-.854-2.06l-6.363-6.363z"></path>
</svg>
